<?xml version="1.0" encoding="UTF-8"?>
<svg version="1.1" xmlns="http://www.w3.org/2000/svg" width="1024" height="1024">
<path d="M0 0 C1.34012273 -0.00407564 2.68024209 -0.00942303 4.02035522 -0.01593018 C7.62798504 -0.02949457 11.23535469 -0.02434998 14.84298849 -0.01479292 C18.64054093 -0.00713622 22.4380728 -0.01425876 26.23562622 -0.01895142 C32.61220244 -0.02439295 38.98867407 -0.01726104 45.36523438 -0.00292969 C52.70603583 0.01337974 60.04658703 0.00811433 67.38738239 -0.0084089 C73.72068523 -0.02208649 80.05391336 -0.02391257 86.38722622 -0.0160929 C90.15627262 -0.01144883 93.92520199 -0.01070006 97.69424057 -0.02070236 C101.24193723 -0.02946126 104.78931607 -0.02319028 108.33697891 -0.00601959 C110.23685537 -0.0002533 112.13675917 -0.00899453 114.03662109 -0.0184021 C132.3052454 0.11446637 147.72703887 5.72967727 160.67236328 18.64208984 C179.13091483 38.00979393 180.76176387 58.46166735 180.68798828 83.98193359 C180.69001329 86.46187424 180.69292828 88.9418143 180.69668579 91.42175293 C180.70108899 96.5992606 180.69474283 101.77661216 180.68066406 106.95410156 C180.66357369 113.55739523 180.67342564 120.16032294 180.69138145 126.76360321 C180.70227354 131.87858793 180.69874812 136.99348731 180.69099808 142.10847473 C180.68901105 144.541896 180.69140208 146.97532527 180.69843674 149.40873718 C180.73363881 165.00455446 180.73846202 179.78085696 173.66455078 194.07568359 C173.31827637 194.78845459 172.97200195 195.50122559 172.61523438 196.2355957 C165.14664661 211.02072615 152.18969293 223.11470488 136.28955078 228.38818359 C126.68865356 230.84603751 117.77768542 231.76194404 107.84564781 231.49322128 C105.72631209 231.441025 103.60839489 231.41836688 101.48847961 231.40383911 C95.47403341 231.36236869 89.46149206 231.30944586 83.44897461 231.14501953 C59.74946261 230.43603146 59.74946261 230.43603146 39.67138672 242.10180664 C38.82100578 242.9371418 38.82100578 242.9371418 37.95344543 243.78935242 C35.42635452 246.21762618 32.66397054 248.23655012 29.85205078 250.32568359 C26.89985211 252.59516287 23.95009221 254.86401016 21.03320312 257.17871094 C18.55058785 259.14392921 16.04671359 261.07941978 13.53955078 263.01318359 C12.36888062 263.95665649 12.36888062 263.95665649 11.17456055 264.91918945 C6.51907047 268.46709759 3.11817736 270.09661373 -2.77392578 270.10058594 C-4.71044922 269.38818359 -4.71044922 269.38818359 -6.44897461 267.32543945 C-8.00310045 263.70676555 -8.0893666 260.54470426 -8.00341797 256.68115234 C-7.99917313 255.9557576 -7.99492828 255.23036285 -7.99055481 254.48298645 C-7.97384465 252.18016468 -7.93620882 249.87823806 -7.89794922 247.57568359 C-7.88289238 246.008639 -7.86920572 244.4415806 -7.85693359 242.87451172 C-7.82396653 239.04539402 -7.77223913 235.21694025 -7.71044922 231.38818359 C-8.78190186 231.31470703 -8.78190186 231.31470703 -9.875 231.23974609 C-27.52411999 229.86364264 -41.90719793 221.9204603 -53.42529297 208.45458984 C-67.41617901 189.6804949 -68.32556428 170.18343983 -68.24169922 147.54052734 C-68.24439993 144.95373896 -68.24828715 142.36695157 -68.2532959 139.78016663 C-68.25916257 134.38336471 -68.2511104 128.98685204 -68.23193359 123.59008789 C-68.21016273 117.39258655 -68.21723667 111.19561178 -68.23923922 104.99812311 C-68.2597296 98.9806105 -68.25736961 92.96335092 -68.24571228 86.94580269 C-68.24306404 84.4099374 -68.24624688 81.87405846 -68.25563049 79.33820915 C-68.3267477 54.72675511 -64.99654695 35.9915202 -47.76123047 17.27099609 C-43.2802284 12.88388169 -38.38063616 9.901797 -32.83544922 7.07568359 C-32.19994141 6.75003418 -31.56443359 6.42438477 -30.90966797 6.08886719 C-20.80870879 1.20351897 -11.13671027 -0.05496437 0 0 Z M-4.01904297 16.79443359 C-4.84463211 16.82793915 -5.67022125 16.8614447 -6.52082825 16.89596558 C-19.74842221 17.59537392 -29.89050094 23.09346494 -38.96044922 32.57568359 C-48.53119076 43.96757839 -51.02091478 56.22612819 -50.98510742 70.70605469 C-50.99021835 71.79039291 -50.99532928 72.87473114 -51.00059509 73.9919281 C-51.01440612 77.54854981 -51.01354072 81.10497589 -51.01123047 84.66162109 C-51.015122 87.15206981 -51.01945761 89.64251787 -51.0242157 92.13296509 C-51.03165964 97.34273433 -51.03139982 102.55243578 -51.02612305 107.76220703 C-51.02033037 114.41514838 -51.03726359 121.06770677 -51.06046772 127.72061729 C-51.07524927 132.86125288 -51.07607074 138.00182205 -51.07295799 143.14247513 C-51.07346896 145.59430111 -51.07866422 148.04613104 -51.08876991 150.49793625 C-51.10120299 153.9359792 -51.09430129 157.37348807 -51.08276367 160.81152344 C-51.09040741 161.80930313 -51.09805115 162.80708282 -51.10592651 163.83509827 C-50.9962741 178.73058704 -46.09448802 191.54018977 -35.82763672 202.38818359 C-23.73231425 213.81402327 -8.5708266 215.11533388 7.28955078 216.38818359 C8.20613461 219.55871555 8.47787117 222.51642221 8.60595703 225.81005859 C8.64785156 226.83486328 8.68974609 227.85966797 8.73291016 228.91552734 C8.77222656 229.97900391 8.81154297 231.04248047 8.85205078 232.13818359 C8.89523438 233.21712891 8.93841797 234.29607422 8.98291016 235.40771484 C9.08884068 238.06774788 9.19091499 240.72787171 9.28955078 243.38818359 C17.22381843 238.6526235 24.43493139 233.29570062 31.65429688 227.54003906 C47.11736329 215.27433905 47.11736329 215.27433905 57.01733398 215.24633789 C57.69754105 215.24286346 58.37774811 215.23938904 59.0785675 215.23580933 C60.55668128 215.22845868 62.03480604 215.22310961 63.51293373 215.21951866 C65.86525384 215.21232614 68.21736858 215.19663346 70.56962585 215.17817688 C77.25854457 215.12587788 83.94735641 215.0778721 90.63647461 215.06225586 C94.73154763 215.05207062 98.82611062 215.02247392 102.92098045 214.98093605 C104.46958715 214.96875818 106.01826639 214.96348017 107.56691933 214.96573448 C124.04571901 214.98379824 136.70167588 211.99839618 149.27783203 200.58349609 C164.26013566 185.10288969 163.59770082 165.29972108 163.55517578 145.21240234 C163.55652579 142.95620177 163.55846911 140.70000147 163.56097412 138.44380188 C163.56391138 133.72935194 163.55967408 129.01497814 163.55029297 124.30053711 C163.53891913 118.29596459 163.54545384 112.29157133 163.5574379 106.28700542 C163.56471122 101.63093244 163.56234326 96.974901 163.55718231 92.31882668 C163.55585988 90.10672801 163.55744348 87.89462543 163.56214142 85.68253136 C164.00077595 56.14567435 164.00077595 56.14567435 150.00439453 30.90380859 C138.93472342 21.12013572 127.7790242 17.35054135 113.30908203 16.83349609 C112.14149857 16.7914505 110.9739151 16.74940491 109.77095032 16.70608521 C92.80735535 16.16861596 75.8337733 16.23790348 58.86352539 16.2578125 C53.94790384 16.26352917 49.03233614 16.26010209 44.11671638 16.25438499 C20.04324958 16.17552661 20.04324958 16.17552661 -4.01904297 16.79443359 Z " fill="#76AAD4" transform="translate(218.71044921875,376.61181640625)"/>
<path d="M0 0 C4.59463437 3.53507508 6.95942451 7.04957581 8.11328125 12.74609375 C9.25978089 22.11186547 5.6235884 28.44865996 0.11328125 35.74609375 C0.82871094 35.66230469 1.54414063 35.57851563 2.28125 35.4921875 C21.96984465 33.48002841 21.96984465 33.48002841 27.25805664 37.29223633 C29.79366613 40.64602116 29.6713334 43.61302272 29.609375 47.65234375 C29.61083023 48.41405884 29.61228546 49.17577393 29.61378479 49.96057129 C29.61212814 51.56766595 29.60059285 53.17477685 29.57983398 54.78173828 C29.55087676 57.23799201 29.55922871 59.69208644 29.57226562 62.1484375 C29.56602776 63.71225005 29.55763643 65.27605579 29.546875 66.83984375 C29.54981064 67.57223267 29.55274628 68.30462158 29.55577087 69.0592041 C29.50065763 72.04647758 29.2511525 74.43840886 28.02368164 77.17773438 C25.25017823 79.45466548 22.6183031 79.4815638 19.11328125 79.74609375 C19.12438431 80.37614319 19.13548737 81.00619263 19.14692688 81.65533447 C19.25748376 88.2087182 19.33293341 94.76183739 19.38793945 101.31591797 C19.4130948 103.76231647 19.44722291 106.20863974 19.49047852 108.65478516 C19.55108196 112.16978506 19.57948146 115.68379204 19.6015625 119.19921875 C19.62736893 120.29413635 19.65317535 121.38905396 19.67976379 122.51715088 C19.68014145 123.5379071 19.6805191 124.55866333 19.6809082 125.61035156 C19.69201126 126.50747864 19.70311432 127.40460571 19.71455383 128.32891846 C19.11328125 130.74609375 19.11328125 130.74609375 17.20599365 133.03671265 C12.79515193 135.47464043 9.02574556 135.29076482 4.06225586 135.23193359 C2.54924141 135.23762863 2.54924141 135.23762863 1.00566101 135.24343872 C-2.32466844 135.25084128 -5.65412324 135.22946651 -8.984375 135.20703125 C-11.29935097 135.20464673 -13.61432889 135.20374152 -15.92930603 135.20425415 C-20.7789218 135.20112672 -25.62824182 135.18456428 -30.4777832 135.15771484 C-36.69777153 135.12371638 -42.91743516 135.11608686 -49.13750553 135.11760521 C-53.91669318 135.11706171 -58.69580968 135.10609796 -63.47497368 135.09160233 C-65.76872659 135.08523322 -68.06248758 135.08129517 -70.35624886 135.07981491 C-73.55933529 135.07548426 -76.76207567 135.0579885 -79.96508789 135.03662109 C-80.91532837 135.03752747 -81.86556885 135.03843384 -82.84460449 135.03936768 C-84.15462181 135.02657272 -84.15462181 135.02657272 -85.49110413 135.01351929 C-86.24785462 135.0101676 -87.00460512 135.00681591 -87.78428745 135.00336266 C-90.21134007 134.70637071 -91.81395889 134.03104947 -93.88671875 132.74609375 C-95.11883823 130.28185479 -95.04451783 128.59374712 -95.09204102 125.83740234 C-95.11198624 124.81649506 -95.13193146 123.79558777 -95.15248108 122.7437439 C-95.16919357 121.63850372 -95.18590607 120.53326355 -95.203125 119.39453125 C-95.2239061 118.26536285 -95.24468719 117.13619446 -95.26609802 115.97280884 C-95.3316321 112.35563403 -95.39049649 108.73838494 -95.44921875 105.12109375 C-95.49240029 102.67316931 -95.53601446 100.22525247 -95.58007812 97.77734375 C-95.68731742 91.76700625 -95.78907662 85.7565944 -95.88671875 79.74609375 C-97.00304687 79.60816406 -98.119375 79.47023438 -99.26953125 79.328125 C-102.88671875 78.74609375 -102.88671875 78.74609375 -104.76171875 77.43359375 C-108.25871048 72.18810616 -107.1099592 64.91391952 -107.12695312 58.90161133 C-107.13667128 56.81876876 -107.1677274 54.73690874 -107.19921875 52.65429688 C-107.204375 51.33494141 -107.20953125 50.01558594 -107.21484375 48.65625 C-107.22418945 47.45105713 -107.23353516 46.24586426 -107.24316406 45.00415039 C-106.82288063 41.16258713 -105.63843575 38.49781075 -102.88671875 35.74609375 C-101.03497169 35.58823067 -99.17762765 35.49502019 -97.3203125 35.4296875 C-96.19560547 35.38779297 -95.07089844 35.34589844 -93.91210938 35.30273438 C-92.72810547 35.26341797 -91.54410156 35.22410156 -90.32421875 35.18359375 C-89.13634766 35.14041016 -87.94847656 35.09722656 -86.72460938 35.05273438 C-83.77877091 34.94625829 -80.83284445 34.84424534 -77.88671875 34.74609375 C-78.51900391 33.93205078 -78.51900391 33.93205078 -79.1640625 33.1015625 C-79.71191406 32.38613281 -80.25976562 31.67070312 -80.82421875 30.93359375 C-81.36949219 30.22589844 -81.91476563 29.51820313 -82.4765625 28.7890625 C-85.95654531 23.74742535 -85.54241791 17.61758173 -84.88671875 11.74609375 C-82.49316986 5.43207686 -77.61703058 0.5029902 -71.53125 -2.36328125 C-65.80680866 -4.2911581 -59.27673304 -4.23038971 -53.69921875 -1.81640625 C-47.17174805 1.94427646 -42.5688042 8.32227082 -38.88671875 14.74609375 C-38.34144531 13.94945312 -37.79617188 13.1528125 -37.234375 12.33203125 C-28.00218699 -0.64037652 -15.60482137 -10.37090613 0 0 Z M-19.34863281 14.15087891 C-22.02019099 16.92166639 -23.86368097 20.10557172 -25.76171875 23.43359375 C-26.365 24.44776367 -26.365 24.44776367 -26.98046875 25.48242188 C-29.14751516 28.88664006 -29.14751516 28.88664006 -29.88671875 32.74609375 C-21.41068426 30.85251158 -13.88477723 27.35520921 -8.09765625 20.68359375 C-6.65101271 18.7645056 -6.65101271 18.7645056 -6.94921875 16.18359375 C-8.08246946 13.23714191 -9.15216589 12.27422623 -11.88671875 10.74609375 C-15.46027561 10.74609375 -16.72189055 11.84659078 -19.34863281 14.15087891 Z M-68.32421875 13.87109375 C-70.1394323 16.6226538 -70.1394323 16.6226538 -69.76171875 19.62109375 C-65.83332914 26.16840977 -58.06570135 30.44881932 -50.88671875 32.74609375 C-48.73860908 32.35803537 -48.73860908 32.35803537 -46.88671875 31.74609375 C-48.26960533 29.15506443 -49.6671129 26.5739295 -51.07421875 23.99609375 C-51.46158203 23.26648438 -51.84894531 22.536875 -52.24804688 21.78515625 C-54.59597464 17.51619667 -56.6917437 14.44782437 -60.88671875 11.74609375 C-64.57183421 10.93716597 -65.45962939 11.37375943 -68.32421875 13.87109375 Z M-91.88671875 50.74609375 C-91.88671875 55.36609375 -91.88671875 59.98609375 -91.88671875 64.74609375 C-76.37671875 64.74609375 -60.86671875 64.74609375 -44.88671875 64.74609375 C-44.88671875 60.12609375 -44.88671875 55.50609375 -44.88671875 50.74609375 C-47.20889554 49.58500535 -48.55233406 49.61935528 -51.13696289 49.61669922 C-52.01449722 49.61354706 -52.89203156 49.6103949 -53.79615784 49.60714722 C-54.7451445 49.60917145 -55.69413116 49.61119568 -56.671875 49.61328125 C-58.12901161 49.61184616 -58.12901161 49.61184616 -59.61558533 49.61038208 C-61.67088892 49.60970092 -63.72619467 49.61155076 -65.78149414 49.61572266 C-68.93966464 49.62107755 -72.09769329 49.61577253 -75.25585938 49.609375 C-77.24869823 49.61003568 -79.241537 49.61131663 -81.234375 49.61328125 C-82.66089134 49.6102449 -82.66089134 49.6102449 -84.1162262 49.60714722 C-84.99060837 49.61029938 -85.86499054 49.61345154 -86.76586914 49.61669922 C-87.92597252 49.61789261 -87.92597252 49.61789261 -89.10951233 49.61911011 C-90.9118419 49.5529124 -90.9118419 49.5529124 -91.88671875 50.74609375 Z M-30.88671875 50.74609375 C-30.88671875 55.36609375 -30.88671875 59.98609375 -30.88671875 64.74609375 C-16.03671875 64.74609375 -1.18671875 64.74609375 14.11328125 64.74609375 C14.11328125 59.79609375 14.11328125 54.84609375 14.11328125 49.74609375 C7.86531871 49.7214492 1.61738422 49.70326032 -4.63061523 49.69116211 C-6.75789889 49.68612077 -8.88517906 49.67928784 -11.01245117 49.6706543 C-14.06299701 49.65857996 -17.1134972 49.65286361 -20.1640625 49.6484375 C-21.1213475 49.64327621 -22.07863251 49.63811493 -23.06492615 49.63279724 C-24.38618248 49.63268394 -24.38618248 49.63268394 -25.73413086 49.63256836 C-26.51356552 49.63034775 -27.29300018 49.62812714 -28.09605408 49.62583923 C-29.9103841 49.55037989 -29.9103841 49.55037989 -30.88671875 50.74609375 Z M-80.88671875 80.74609375 C-80.97537083 83.63043195 -81.00193171 86.49071533 -80.984375 89.375 C-80.98296005 90.2392308 -80.9815451 91.10346161 -80.98008728 91.99388123 C-80.97447114 94.76548667 -80.96191594 97.53701255 -80.94921875 100.30859375 C-80.94420583 102.18294155 -80.93964256 104.0572906 -80.93554688 105.93164062 C-80.92534556 110.53651396 -80.90577342 115.14121435 -80.88671875 119.74609375 C-69.00671875 119.74609375 -57.12671875 119.74609375 -44.88671875 119.74609375 C-44.88671875 106.54609375 -44.88671875 93.34609375 -44.88671875 79.74609375 C-50.64109375 79.72546875 -56.39546875 79.70484375 -62.32421875 79.68359375 C-65.05143188 79.66993774 -65.05143188 79.66993774 -67.83374023 79.65600586 C-69.26676357 79.65308664 -70.69978773 79.65053809 -72.1328125 79.6484375 C-72.88340942 79.64332153 -73.63400635 79.63820557 -74.40734863 79.63293457 C-77.94015461 79.3038648 -77.94015461 79.3038648 -80.88671875 80.74609375 Z M-30.88671875 80.74609375 C-30.97537083 83.63043195 -31.00193171 86.49071533 -30.984375 89.375 C-30.98296005 90.2392308 -30.9815451 91.10346161 -30.98008728 91.99388123 C-30.97447114 94.76548667 -30.96191594 97.53701255 -30.94921875 100.30859375 C-30.94420583 102.18294155 -30.93964256 104.0572906 -30.93554688 105.93164062 C-30.92534556 110.53651396 -30.90577342 115.14121435 -30.88671875 119.74609375 C-19.33671875 119.74609375 -7.78671875 119.74609375 4.11328125 119.74609375 C4.11328125 106.54609375 4.11328125 93.34609375 4.11328125 79.74609375 C-4.27078125 79.71515625 -4.27078125 79.71515625 -12.82421875 79.68359375 C-14.59015381 79.67448975 -16.35608887 79.66538574 -18.17553711 79.65600586 C-19.5675448 79.65308661 -20.95955334 79.65053808 -22.3515625 79.6484375 C-23.08056763 79.64332153 -23.80957275 79.63820557 -24.56066895 79.63293457 C-28.01286476 79.31767597 -28.01286476 79.31767597 -30.88671875 80.74609375 Z " fill="#77AAD4" transform="translate(312.88671875,425.25390625)"/>
<path d="M0 0 C3.125 2.3125 3.125 2.3125 5 4 C4.979375 2.865625 4.95875 1.73125 4.9375 0.5625 C5 -3 5 -3 6 -4 C7.34267413 -4.08631874 8.68974322 -4.10706473 10.03515625 -4.09765625 C10.84404297 -4.09443359 11.65292969 -4.09121094 12.48632812 -4.08789062 C13.33646484 -4.07951172 14.18660156 -4.07113281 15.0625 -4.0625 C15.91650391 -4.05798828 16.77050781 -4.05347656 17.65039062 -4.04882812 C19.76695663 -4.03700373 21.88348685 -4.01906769 24 -4 C24.06970223 5.88407107 24.12291362 15.76808305 24.15543652 25.65235043 C24.1710508 30.24268756 24.19221112 34.83285577 24.22631836 39.4230957 C24.25906365 43.85811065 24.27688484 48.29296372 24.28463173 52.72809029 C24.29014813 54.41486723 24.30091998 56.10163594 24.31719017 57.78834343 C24.43614408 70.63845428 23.86381872 80.02058468 14.52734375 89.765625 C10.6919451 93.15642566 6.78646663 95.24342811 2 97 C1.34 97.24363281 0.68 97.48726563 0 97.73828125 C-11.23193098 100.96307393 -25.70088004 100.55496923 -36 95 C-42.0142 91.54872734 -45.82955028 87.67076072 -48 81 C-48.36671262 79.00585032 -48.70647504 77.00622885 -49 75 C-45.89632503 74.85484323 -42.79351973 74.76599147 -39.6875 74.6875 C-38.80642578 74.64560547 -37.92535156 74.60371094 -37.01757812 74.56054688 C-34.58322959 74.51426648 -32.38827846 74.52032279 -30 75 C-28.05078125 77.40625 -28.05078125 77.40625 -27 80 C-21.75846752 83.80011105 -16.21318668 83.63543955 -10 83 C-3.77005531 81.73717337 -0.57039437 79.1933009 3 74 C4.09506492 70.71480525 4.09960608 68.26336585 4.0625 64.8125 C4.05347656 63.72582031 4.04445313 62.63914062 4.03515625 61.51953125 C4.02355469 60.68808594 4.01195312 59.85664063 4 59 C3.52691406 59.39832031 3.05382812 59.79664063 2.56640625 60.20703125 C-4.18178578 65.61347749 -10.84561974 68.64800545 -19.6171875 68.28125 C-29.21416896 67.14849153 -37.39877536 64.02195919 -44.0078125 56.80859375 C-50.63376053 48.1726824 -53.19767474 37.7954792 -52 27 C-50.17173786 16.08711746 -46.30464736 7.31247081 -37.15234375 0.65625 C-25.60277426 -6.99895598 -11.66747594 -7.7856692 0 0 Z M-27.75 16.8125 C-32.43351381 23.44747789 -32.844678 30.05376995 -32 38 C-30.4097988 43.31213159 -27.79952933 47.09795901 -23 50 C-16.88877888 52.46799315 -11.16730366 52.58013675 -5.01171875 50.24609375 C0.35050061 47.50183159 3.12711153 43.61866542 5 38 C5.6401166 30.32909456 5.87289516 23.30346989 1 17 C-2.36133449 13.49824423 -5.52366072 11.20215015 -10.48828125 10.796875 C-17.95848934 10.67288814 -22.33836769 11.27787604 -27.75 16.8125 Z " fill="#414D53" transform="translate(820,413)"/>
<path d="M0 0 C55.28328735 1.17624016 55.28328735 1.17624016 63.49609375 9.2109375 C70.57268305 17.62932165 71.07571851 26.39996698 70.24804688 36.99462891 C69.72770868 41.20137884 68.37034919 44.52193861 66 48 C65.43925781 48.85271484 65.43925781 48.85271484 64.8671875 49.72265625 C61.86408821 53.76987947 58.43065017 55.8264735 54 58 C53.34 58 52.68 58 52 58 C55.93785703 66.4631292 60.67453501 74.4611351 65.37890625 82.51171875 C65.82121582 83.2701709 66.26352539 84.02862305 66.71923828 84.81005859 C67.55118017 86.23257455 68.38783655 87.65234754 69.22998047 89.06884766 C72 93.78141498 72 93.78141498 72 96 C68.62684918 96.29210605 65.25693816 96.46842879 61.875 96.625 C60.92367187 96.70878906 59.97234375 96.79257812 58.9921875 96.87890625 C56.05145825 96.9810149 53.80803127 96.89536725 51 96 C48.14361299 93.07872144 46.65957397 89.69959399 45 86 C43.51399278 82.9882793 42.00748625 79.98825795 40.48632812 76.99414062 C39.44502856 74.9391169 38.44013256 72.86527911 37.47070312 70.77539062 C35.78253078 67.30310181 35.78253078 67.30310181 32 63 C27.71 62.67 23.42 62.34 19 62 C19 73.22 19 84.44 19 96 C9.595 96.495 9.595 96.495 0 97 C0 64.99 0 32.98 0 0 Z M19 17 C19 26.24 19 35.48 19 45 C21.825625 45.04125 24.65125 45.0825 27.5625 45.125 C28.43849854 45.14320801 29.31449707 45.16141602 30.21704102 45.18017578 C36.61247159 45.22495463 41.8216903 44.84682779 46.875 40.5625 C50.29596595 36.43721753 50.40415303 32.68372856 50.34375 27.51171875 C49.7660958 23.29090452 48.2031554 21.78535252 45 19 C39.60259865 16.55117902 34.42253591 16.76832005 28.625 16.875 C23.860625 16.936875 23.860625 16.936875 19 17 Z " fill="#3F4B51" transform="translate(440,506)"/>
<path d="M0 0 C51.82857143 0 51.82857143 0 61.375 6.1875 C68.84531304 14.19140682 70.33557525 21.79869217 70.203125 32.4609375 C69.72144179 40.8533412 66.89557694 45.74456963 61.328125 51.95703125 C58.41599305 54.51247589 55.41108456 56.16674803 52 58 C54.04275206 61.55742484 56.08751439 65.11368602 58.1340332 68.66894531 C58.82792711 69.87501815 59.52129975 71.08139105 60.21411133 72.28808594 C64.95285756 80.5615607 64.95285756 80.5615607 69.98828125 88.65625 C72 92 72 92 72 95 C65.07045764 96.5473928 57.74115786 97.73062648 51 95 C43.64835175 87.89956861 39.71544796 77.20989319 35.67919922 67.97949219 C34.23070026 64.81590443 34.23070026 64.81590443 31 61 C27.37 61 23.74 61 20 61 C19.67 72.22 19.34 83.44 19 95 C12.73 95 6.46 95 0 95 C0 63.65 0 32.3 0 0 Z M19 16 C19 24.91 19 33.82 19 43 C24.259375 43.12375 24.259375 43.12375 29.625 43.25 C31.265896 43.30462402 31.265896 43.30462402 32.93994141 43.36035156 C38.95826213 43.4288043 42.47453841 43.10005353 47 39 C49.9014908 34.22657965 50.43364271 30.47325286 49.5703125 25.08203125 C48.70318982 21.91643954 47.43931742 20.17560743 45 18 C39.58636159 15.56852234 34.43074635 15.76816897 28.625 15.875 C23.860625 15.936875 23.860625 15.936875 19 16 Z " fill="#404C52" transform="translate(440,388)"/>
<path d="M0 0 C5.99814993 5.77816888 8.85871045 13.59994665 9.14819336 21.80340576 C9.17813499 24.76270232 9.17483119 27.72027554 9.16015625 30.6796875 C9.1587413 31.75880402 9.15732635 32.83792053 9.15586853 33.94973755 C9.15028844 37.38318702 9.13773955 40.81657036 9.125 44.25 C9.11998243 46.58333239 9.11541997 48.9166658 9.11132812 51.25 C9.10032552 56.95835867 9.08307456 62.66666813 9.0625 68.375 C2.7925 68.375 -3.4775 68.375 -9.9375 68.375 C-10.4325 64.415 -10.4325 64.415 -10.9375 60.375 C-11.72125 61.1175 -12.505 61.86 -13.3125 62.625 C-20.37887515 68.40657967 -27.80998216 70.01332416 -36.8203125 69.6953125 C-44.14264678 68.94289219 -49.8160274 66.85378464 -54.9375 61.375 C-58.72928392 55.40973246 -60.1360807 49.36315353 -58.9375 42.375 C-56.88182216 35.68416395 -53.681753 31.12561486 -47.55419922 27.66040039 C-39.23161053 23.57209759 -30.88385472 22.95900716 -21.75 23.1875 C-20.17895508 23.20780273 -20.17895508 23.20780273 -18.57617188 23.22851562 C-16.02937876 23.2634032 -13.48373675 23.3124113 -10.9375 23.375 C-11.246875 22.1375 -11.55625 20.9 -11.875 19.625 C-12.41118908 17.48024367 -12.94210319 15.35194296 -13.375 13.18359375 C-13.78172899 11.15375155 -13.78172899 11.15375155 -16 10.1875 C-21.45446999 8.67881681 -25.24816974 7.89635643 -30.6875 9.4375 C-34.14531525 11.11509355 -34.14531525 11.11509355 -35.5625 14.47265625 C-37.9375 17.375 -37.9375 17.375 -39.94238281 17.86254883 C-42.38203693 17.96586751 -44.75033739 17.8985146 -47.1875 17.75 C-48.02796875 17.72292969 -48.8684375 17.69585937 -49.734375 17.66796875 C-51.80318634 17.59744109 -53.87067393 17.48982367 -55.9375 17.375 C-56.9375 15.375 -56.9375 15.375 -56.30078125 13.16796875 C-55.95402344 12.30816406 -55.60726562 11.44835937 -55.25 10.5625 C-54.91613281 9.71042969 -54.58226562 8.85835938 -54.23828125 7.98046875 C-51.51239503 2.52051047 -48.48147875 -0.24831409 -43 -2.875 C-41.98035156 -3.37515625 -40.96070313 -3.8753125 -39.91015625 -4.390625 C-27.71497223 -9.45459103 -10.62514067 -8.02585733 0 0 Z M-37.75 39.5 C-39.73814054 42.63916927 -39.64519704 45.85025649 -38.9375 49.375 C-36.9305905 52.41773376 -35.40457073 53.92595364 -31.8828125 55.00390625 C-26.40140445 55.90482972 -21.71953404 55.26719089 -16.9375 52.375 C-13.52352311 49.35094432 -11.17804493 45.77329568 -9.9375 41.375 C-9.91050305 39.708552 -9.90700039 38.04138758 -9.9375 36.375 C-13.33326062 36.31669213 -16.7288915 36.28130054 -20.125 36.25 C-21.08470703 36.23324219 -22.04441406 36.21648437 -23.03320312 36.19921875 C-24.43022461 36.18955078 -24.43022461 36.18955078 -25.85546875 36.1796875 C-26.70906982 36.16921387 -27.5626709 36.15874023 -28.44213867 36.14794922 C-31.95668943 36.46773517 -34.76712501 37.64856035 -37.75 39.5 Z " fill="#444F55" transform="translate(661.9375,414.625)"/>
<path d="M0 0 C6.4840797 4.34103641 10.75138509 9.63825887 12.53611755 17.3021698 C12.99717187 19.98355226 13.12040665 22.43937457 13.11352539 25.1574707 C13.11341209 26.65846062 13.11341209 26.65846062 13.11329651 28.18977356 C13.10813522 29.2576561 13.10297394 30.32553864 13.09765625 31.42578125 C13.0962413 32.52850876 13.09482635 33.63123627 13.09336853 34.76737976 C13.08778004 38.28244767 13.07522959 41.79745141 13.0625 45.3125 C13.05748352 47.69856679 13.05292087 50.08463457 13.04882812 52.47070312 C13.03781437 58.31382673 13.02055758 64.15690249 13 70 C7.06 70.33 1.12 70.66 -5 71 C-5.495 66.545 -5.495 66.545 -6 62 C-6.70962891 62.70576172 -6.70962891 62.70576172 -7.43359375 63.42578125 C-13.92353911 69.53619765 -19.57267745 72.06372655 -28.5 72.375 C-36.0451714 72.14284088 -43.27875691 70.07110183 -49 65 C-53.41701217 58.63155653 -55.10945046 52.67790151 -54 45 C-52.88734124 39.08365099 -50.17502003 35.33064154 -45.4387207 31.64672852 C-36.99401767 25.94450387 -28.22247751 25.46065759 -18.3125 25.75 C-17.12205078 25.76804687 -15.93160156 25.78609375 -14.70507812 25.8046875 C-11.80250969 25.85131511 -8.90170889 25.91673719 -6 26 C-6.44791582 24.38453199 -6.90550422 22.77174367 -7.3671875 21.16015625 C-7.62097168 20.26176025 -7.87475586 19.36336426 -8.13623047 18.43774414 C-9.37779602 14.93377806 -10.68049584 13.65975208 -14 12 C-18.46164491 10.8289213 -21.89645095 10.64603144 -26.3125 12.0625 C-29.21859535 13.84810545 -29.21859535 13.84810545 -30.58984375 17.09765625 C-33 20 -33 20 -35.00708008 20.48754883 C-37.44597936 20.59093332 -39.81358511 20.52346903 -42.25 20.375 C-43.09046875 20.34792969 -43.9309375 20.32085938 -44.796875 20.29296875 C-46.86568634 20.22244109 -48.93317393 20.11482367 -51 20 C-52 18 -52 18 -51.3984375 15.828125 C-48.23357953 7.85558202 -45.21383224 2.65429655 -37.2578125 -1.140625 C-25.53588728 -5.60225744 -11.21173553 -6.27191146 0 0 Z M-19 38.25 C-20.19109375 38.29060547 -20.19109375 38.29060547 -21.40625 38.33203125 C-26.02367447 38.57059818 -29.24496186 39.03704022 -33 42 C-34.79009505 45.58019011 -34.46638897 49.56196733 -33.25 53.3125 C-31.6794135 55.43279178 -30.44252688 56.00693111 -28 57 C-22.7598978 57.68073835 -18.3390108 57.65733258 -13.5625 55.3125 C-7.96348691 50.25973209 -6.21133858 46.31584747 -5 39 C-9.71849383 37.7442718 -14.17727163 37.99163955 -19 38.25 Z " fill="#424D53" transform="translate(722,532)"/>
<path d="M0 0 C5.41784565 4.40572064 9.32707403 9.43631081 10.6953125 16.421875 C10.80746053 18.1621217 10.87101041 19.90580913 10.90063477 21.64941406 C10.9305526 23.21057953 10.9305526 23.21057953 10.96107483 24.80328369 C10.97778732 25.92007507 10.99449982 27.03686646 11.01171875 28.1875 C11.03249985 29.33603455 11.05328094 30.48456909 11.07469177 31.66790771 C11.14006243 35.33583611 11.19901444 39.00383593 11.2578125 42.671875 C11.30100957 45.15886154 11.34462425 47.64584087 11.38867188 50.1328125 C11.49573112 56.22909352 11.59703397 62.32544636 11.6953125 68.421875 C5.4253125 68.421875 -0.8446875 68.421875 -7.3046875 68.421875 C-7.7996875 64.461875 -7.7996875 64.461875 -8.3046875 60.421875 C-9.01431641 61.12763672 -9.01431641 61.12763672 -9.73828125 61.84765625 C-16.22822661 67.95807265 -21.87736495 70.48560155 -30.8046875 70.796875 C-38.72665121 70.54239851 -46.67160521 68.27385945 -52.3046875 62.421875 C-56.73837754 55.79757479 -57.33417844 48.95913697 -55.90234375 41.2578125 C-53.98401643 34.76308341 -49.19585833 30.60316789 -43.40234375 27.35546875 C-38.09829608 24.95297888 -33.11363634 24.29464962 -27.34765625 24.32421875 C-26.23583984 24.32744141 -25.12402344 24.33066406 -23.97851562 24.33398438 C-22.82802734 24.34236328 -21.67753906 24.35074219 -20.4921875 24.359375 C-19.32236328 24.36388672 -18.15253906 24.36839844 -16.94726562 24.37304688 C-14.06635392 24.3848057 -11.18554706 24.40124074 -8.3046875 24.421875 C-8.75260332 22.80640699 -9.21019172 21.19361867 -9.671875 19.58203125 C-9.92565918 18.68363525 -10.17944336 17.78523926 -10.44091797 16.85961914 C-11.68248352 13.35565306 -12.98518334 12.08162708 -16.3046875 10.421875 C-20.76633241 9.2507963 -24.20113845 9.06790644 -28.6171875 10.484375 C-31.52328285 12.26998045 -31.52328285 12.26998045 -32.89453125 15.51953125 C-35.3046875 18.421875 -35.3046875 18.421875 -37.31176758 18.90942383 C-39.75066686 19.01280832 -42.11827261 18.94534403 -44.5546875 18.796875 C-45.39515625 18.76980469 -46.235625 18.74273438 -47.1015625 18.71484375 C-49.17037384 18.64431609 -51.23786143 18.53669867 -53.3046875 18.421875 C-52.58536918 11.09860231 -51.15034657 6.19903633 -45.76953125 0.9140625 C-33.55009167 -8.73438388 -12.61906435 -8.64085084 0 0 Z M-35.1640625 40.25 C-36.9539263 43.65809683 -37.02123653 46.66962361 -36.3046875 50.421875 C-34.43453656 52.85307123 -33.02330405 54.06256673 -30.3046875 55.421875 C-25.04893585 55.9457326 -20.65942655 56.08692872 -15.8671875 53.734375 C-10.26817441 48.68160709 -8.51602608 44.73772247 -7.3046875 37.421875 C-14.75293169 35.55981395 -29.38885236 34.57185222 -35.1640625 40.25 Z " fill="#414D53" transform="translate(575.3046875,533.578125)"/>
<path d="M0 0 C2.97922593 -0.02683987 5.95821295 -0.04676037 8.9375 -0.0625 C9.78763672 -0.07087891 10.63777344 -0.07925781 11.51367188 -0.08789062 C12.32255859 -0.09111328 13.13144531 -0.09433594 13.96484375 -0.09765625 C14.7137085 -0.10289307 15.46257324 -0.10812988 16.23413086 -0.11352539 C18 0 18 0 19 1 C19.10670947 2.43596542 19.14619095 3.87701579 19.15771484 5.31689453 C19.16797699 6.2352005 19.17823914 7.15350647 19.18881226 8.09963989 C19.19611359 9.10058685 19.20341492 10.10153381 19.2109375 11.1328125 C19.23902126 13.2395909 19.26768581 15.34636162 19.296875 17.453125 C19.3380475 20.78417627 19.3749213 24.11508655 19.40136719 27.44628906 C19.42906622 30.65460151 19.47495735 33.86225559 19.5234375 37.0703125 C19.52669037 38.05911407 19.52994324 39.04791565 19.53329468 40.06668091 C19.63444982 45.78935631 20.19896644 49.96449987 23 55 C27.66305662 58.44177989 32.40703666 58.72296833 38 58 C43.20588572 56.23196334 45.36844831 53.77577899 48 49 C48.90151958 46.10234306 49.14580965 43.44168044 49.20532227 40.41503906 C49.22526749 39.51440735 49.24521271 38.61377563 49.26576233 37.68585205 C49.28247482 36.72217712 49.29918732 35.7585022 49.31640625 34.765625 C49.33718735 33.77246277 49.35796844 32.77930054 49.37937927 31.75604248 C49.44469749 28.58743118 49.50367739 25.41873789 49.5625 22.25 C49.60570207 20.10025198 49.64931691 17.95051222 49.69335938 15.80078125 C49.80036077 10.53393792 49.90167822 5.26701222 50 0 C56.27 0 62.54 0 69 0 C69 24.42 69 48.84 69 74 C62.73 74 56.46 74 50 74 C49.505 70.04 49.505 70.04 49 66 C48.5875 66.39832031 48.175 66.79664063 47.75 67.20703125 C40.15010218 74.17925894 33.72388791 75.58727425 23.4140625 75.35546875 C18.65218168 74.85966651 15.05377623 73.49129289 11 71 C10.0925 70.443125 9.185 69.88625 8.25 69.3125 C2.53147325 63.43512529 -0.13246326 56.69427386 -0.11352539 48.58886719 C-0.11344986 47.50804871 -0.11337433 46.42723022 -0.11329651 45.31365967 C-0.10813522 44.15312073 -0.10297394 42.99258179 -0.09765625 41.796875 C-0.0962413 40.60394836 -0.09482635 39.41102173 -0.09336853 38.1819458 C-0.08777038 34.37127171 -0.07521819 30.56065634 -0.0625 26.75 C-0.05748476 24.16666752 -0.0529219 21.58333411 -0.04882812 19 C-0.03780155 12.66664663 -0.02106524 6.33332751 0 0 Z " fill="#434E54" transform="translate(521,409)"/>
<path d="M0 0 C6.60044858 4.7699598 10.70168025 10.97344517 12.49389648 18.88525391 C13.11682863 23.90151537 13.05186833 28.86829698 13.02734375 33.91796875 C13.0259288 35.01928131 13.02451385 36.12059387 13.02305603 37.25527954 C13.01747502 40.76005817 13.00492596 44.26477205 12.9921875 47.76953125 C12.98717005 50.15104074 12.98260757 52.53255124 12.97851562 54.9140625 C12.9675118 60.74091022 12.9502602 66.56770977 12.9296875 72.39453125 C6.6596875 72.39453125 0.3896875 72.39453125 -6.0703125 72.39453125 C-6.74830354 69.00457605 -7.1934761 66.67064511 -7.15209961 63.3737793 C-7.1455687 62.61916916 -7.13903778 61.86455902 -7.13230896 61.08708191 C-7.12087357 60.28490738 -7.10943817 59.48273285 -7.09765625 58.65625 C-7.08500657 56.93164266 -7.07264586 55.20703317 -7.06054688 53.48242188 C-7.035791 50.783541 -7.00784652 48.08477358 -6.97436523 45.38598633 C-6.94395107 42.76773403 -6.92632263 40.14962383 -6.91015625 37.53125 C-6.89669662 36.73514816 -6.883237 35.93904633 -6.86936951 35.11882019 C-6.84276934 29.10349644 -7.11309929 22.95915545 -10.8828125 18.01953125 C-16.0300831 14.19584452 -20.29680266 14.1450382 -26.47265625 14.8515625 C-29.90920322 15.56987833 -31.75010088 16.77493748 -34.0703125 19.39453125 C-35.89715886 22.43431801 -36.33003911 24.71080367 -36.37329102 28.23901367 C-36.38993301 29.19647995 -36.40657501 30.15394623 -36.42372131 31.14042664 C-36.43213547 32.16658585 -36.44054962 33.19274506 -36.44921875 34.25 C-36.46621323 35.30737869 -36.4832077 36.36475739 -36.50071716 37.45417786 C-36.55384067 40.83006843 -36.59415596 44.20594641 -36.6328125 47.58203125 C-36.67668399 50.96876628 -36.72331119 54.35540417 -36.77561951 57.74201965 C-36.80767565 59.84976416 -36.8345344 61.95759498 -36.85585022 64.06547546 C-36.86934006 65.01348526 -36.8828299 65.96149506 -36.89672852 66.93823242 C-36.90624039 67.77666183 -36.91575226 68.61509125 -36.92555237 69.47892761 C-37.0703125 71.39453125 -37.0703125 71.39453125 -38.0703125 72.39453125 C-44.0103125 72.39453125 -49.9503125 72.39453125 -56.0703125 72.39453125 C-56.0703125 47.97453125 -56.0703125 23.55453125 -56.0703125 -1.60546875 C-50.1303125 -1.60546875 -44.1903125 -1.60546875 -38.0703125 -1.60546875 C-37.7403125 1.36453125 -37.4103125 4.33453125 -37.0703125 7.39453125 C-36.296875 6.28078125 -36.296875 6.28078125 -35.5078125 5.14453125 C-27.19246495 -4.2368865 -10.89772779 -5.8189754 0 0 Z " fill="#424E53" transform="translate(744.0703125,410.60546875)"/>
<path d="M0 0 C4.69168716 3.55340863 7.33274639 8.0672862 8.9140625 13.71484375 C8.9140625 15.36484375 8.9140625 17.01484375 8.9140625 18.71484375 C2.9740625 18.71484375 -2.9659375 18.71484375 -9.0859375 18.71484375 C-10.0759375 16.40484375 -11.0659375 14.09484375 -12.0859375 11.71484375 C-14.94223877 9.55476592 -17.56113771 9.41846326 -21.0859375 9.40234375 C-21.9315625 9.38558594 -22.7771875 9.36882813 -23.6484375 9.3515625 C-26.59920389 9.79134018 -27.95450677 10.65107748 -30.0859375 12.71484375 C-30.8359375 15.71484375 -30.8359375 15.71484375 -30.0859375 18.71484375 C-25.68298154 22.28431833 -20.30098308 22.95017404 -14.8984375 24.08984375 C1.99929641 27.89794681 1.99929641 27.89794681 8.4140625 34.15234375 C12.25422067 40.71261396 12.84142251 46.81890778 10.9765625 54.15234375 C8.70826084 60.44123698 3.6366951 64.58023894 -2.0546875 67.84375 C-12.02564026 72.37003776 -26.64940137 72.49239008 -36.94140625 68.7578125 C-43.08823153 65.76837288 -47.94522637 61.87546944 -51.0859375 55.71484375 C-51.49294646 54.15830949 -51.85850783 52.59049622 -52.1875 51.015625 C-52.44394287 49.80579956 -52.44394287 49.80579956 -52.70556641 48.5715332 C-52.83108887 47.95882568 -52.95661133 47.34611816 -53.0859375 46.71484375 C-49.98226253 46.56968698 -46.87945723 46.48083522 -43.7734375 46.40234375 C-42.89236328 46.36044922 -42.01128906 46.31855469 -41.10351562 46.27539062 C-38.66879441 46.22910315 -36.47503715 46.23817381 -34.0859375 46.71484375 C-31.93978769 49.15564122 -31.0859375 50.46545661 -31.0859375 53.71484375 C-25.78589382 55.94644109 -20.75540197 56.35738306 -15.0859375 55.71484375 C-12.60542821 54.55052306 -10.99167798 53.62058423 -9.0859375 51.71484375 C-9.01445551 50.36240458 -9.00194296 49.00650008 -9.0234375 47.65234375 C-9.0440625 46.35296875 -9.0646875 45.05359375 -9.0859375 43.71484375 C-10.15070312 43.4725 -11.21546875 43.23015625 -12.3125 42.98046875 C-16.91153632 41.92419251 -21.50105762 40.83090004 -26.0859375 39.71484375 C-26.76785156 39.54936035 -27.44976563 39.38387695 -28.15234375 39.21337891 C-43.68256495 35.36611956 -43.68256495 35.36611956 -48.9609375 28.15234375 C-51.46135722 22.7347677 -52.0385348 17.24612802 -50.47265625 11.44140625 C-47.81284274 4.57510353 -43.48916045 -0.06776261 -36.90625 -3.3828125 C-25.03096318 -7.68110655 -10.71739166 -6.60303718 0 0 Z " fill="#424D53" transform="translate(649.0859375,533.28515625)"/>
<path d="M0 0 C5.94 0 11.88 0 18 0 C18 15.18 18 30.36 18 46 C17.67 46 17.34 46 17 46 C17 31.48 17 16.96 17 2 C12.05 2 7.1 2 2 2 C2 16.52 2 31.04 2 46 C1.01 46.495 1.01 46.495 0 47 C0 31.49 0 15.98 0 0 Z " fill="#26333A" transform="translate(521,409)"/>
<path d="M0 0 C2 2 2 2 2.24050903 4.13870239 C2.2338472 5.4644075 2.2338472 5.4644075 2.22705078 6.81689453 C2.22689972 7.81778107 2.22674866 8.8186676 2.22659302 9.84988403 C2.21627045 10.93325043 2.20594788 12.01661682 2.1953125 13.1328125 C2.1924826 14.23978485 2.18965271 15.3467572 2.18673706 16.48727417 C2.17551519 20.03329137 2.15040691 23.57905875 2.125 27.125 C2.1149728 29.52473594 2.1058465 31.92447583 2.09765625 34.32421875 C2.07556928 40.21624253 2.0410257 46.10807887 2 52 C-4.27 52 -10.54 52 -17 52 C-17.33 51.34 -17.66 50.68 -18 50 C-17.67 49.34 -17.34 48.68 -17 48 C-16.34 48 -15.68 48 -15 48 C-15 48.66 -15 49.32 -15 50 C-10.05 50 -5.1 50 0 50 C0 33.5 0 17 0 0 Z " fill="#586063" transform="translate(755,431)"/>
<path d="M0 0 C7.75982262 0.09226121 15.51933217 0.19956624 23.27880859 0.31738281 C25.91905993 0.35568967 28.55936376 0.39053949 31.19970703 0.421875 C34.99270401 0.46748789 38.78533905 0.52548956 42.578125 0.5859375 C43.76053772 0.59748871 44.94295044 0.60903992 46.16119385 0.62094116 C47.26203308 0.64081085 48.36287231 0.66068054 49.49707031 0.68115234 C50.46525696 0.69447601 51.4334436 0.70779968 52.43096924 0.7215271 C55 1 55 1 59 3 C39.53 3 20.06 3 0 3 C0 2.01 0 1.02 0 0 Z " fill="#91BADA" transform="translate(287,391)"/>
<path d="M0 0 C0.71502686 0.0093457 1.43005371 0.01869141 2.16674805 0.02832031 C3.41174072 0.03508789 3.41174072 0.03508789 4.68188477 0.04199219 C5.58825684 0.06326172 6.49462891 0.08453125 7.4284668 0.10644531 C8.37093262 0.11740234 9.31339844 0.12835938 10.28442383 0.13964844 C23.56463417 0.33547779 36.84450473 0.84983925 50.1159668 1.35644531 C50.1159668 2.01644531 50.1159668 2.67644531 50.1159668 3.35644531 C31.9659668 3.35644531 13.8159668 3.35644531 -4.8840332 3.35644531 C-1.8840332 0.35644531 -1.8840332 0.35644531 0 0 Z " fill="#95BDDC" transform="translate(233.884033203125,390.6435546875)"/>
<path d="M0 0 C0.33 0 0.66 0 1 0 C1 31.35 1 62.7 1 95 C0.67 95 0.34 95 0 95 C0 63.65 0 32.3 0 0 Z " fill="#F1EFE8" transform="translate(438,387)"/>
<path d="M0 0 C0.33 0 0.66 0 1 0 C1 31.02 1 62.04 1 94 C0.67 94 0.34 94 0 94 C0 62.98 0 31.96 0 0 Z " fill="#F2EFE9" transform="translate(438,508)"/>
<path d="M0 0 C1.32 0.33 2.64 0.66 4 1 C3.01 1.33 2.02 1.66 1 2 C-0.38122152 5.39573437 -0.20526383 9.11430757 -0.31640625 12.734375 C-0.35830078 14.02988281 -0.40019531 15.32539063 -0.44335938 16.66015625 C-0.48316671 18.02343476 -0.52287906 19.38671606 -0.5625 20.75 C-0.60572274 22.12891875 -0.64933821 23.50782526 -0.69335938 24.88671875 C-0.79943958 28.2577119 -0.9014985 31.62877826 -1 35 C-1.66 35 -2.32 35 -3 35 C-3.07441989 30.81912848 -3.12872818 26.6386127 -3.16479492 22.45727539 C-3.1798376 21.03630859 -3.20027704 19.61538787 -3.22631836 18.19458008 C-3.26290347 16.14653114 -3.27977097 14.0990985 -3.29296875 12.05078125 C-3.3086792 10.82012939 -3.32438965 9.58947754 -3.34057617 8.3215332 C-2.97488056 4.7550179 -2.0734095 2.88172831 0 0 Z " fill="#9ABFDB" transform="translate(209,462)"/>
<path d="M0 0 C5.94 0 11.88 0 18 0 C18 3.3 18 6.6 18 10 C17.67 10 17.34 10 17 10 C17 7.36 17 4.72 17 2 C12.38 2 7.76 2 3 2 C2.67 10.58 2.34 19.16 2 28 C1.67 28 1.34 28 1 28 C0.67 18.76 0.34 9.52 0 0 Z " fill="#3B464C" transform="translate(688,409)"/>
<path d="M0 0 C0.33 0 0.66 0 1 0 C1 16.83 1 33.66 1 51 C0.67 51 0.34 51 0 51 C0 34.17 0 17.34 0 0 Z " fill="#EAE7E1" transform="translate(736,552)"/>
<path d="M0 0 C0.33 0 0.66 0 1 0 C1 16.83 1 33.66 1 51 C0.67 51 0.34 51 0 51 C0 34.17 0 17.34 0 0 Z " fill="#EFEDE7" transform="translate(591,410)"/>
<path d="M0 0 C0.33 0 0.66 0 1 0 C1 16.5 1 33 1 50 C0.67 50 0.34 50 0 50 C0 33.5 0 17 0 0 Z " fill="#EBE8E2" transform="translate(672,433)"/>
<path d="M0 0 C0.33 0 0.66 0 1 0 C1 16.17 1 32.34 1 49 C0.67 49 0.34 49 0 49 C0 32.83 0 16.66 0 0 Z " fill="#EBE9E2" transform="translate(758,433)"/>
<path d="M0 0 C9.76041066 -0.32001346 19.32032595 0.88693687 29 2 C29 2.33 29 2.66 29 3 C19.43 3 9.86 3 0 3 C0 2.01 0 1.02 0 0 Z " fill="#A2C5DE" transform="translate(287,391)"/>
<path d="M0 0 C0.33 0 0.66 0 1 0 C1 15.18 1 30.36 1 46 C0.67 46 0.34 46 0 46 C0 30.82 0 15.64 0 0 Z " fill="#ECEAE4" transform="translate(708,436)"/>
<path d="M0 0 C0.33 0 0.66 0 1 0 C1 15.18 1 30.36 1 46 C0.67 46 0.34 46 0 46 C0 30.82 0 15.64 0 0 Z " fill="#EDEBE5" transform="translate(541,410)"/>
<path d="M0 0 C0.99 0.33 1.98 0.66 3 1 C2.34 1 1.68 1 1 1 C0.7525 1.5775 0.505 2.155 0.25 2.75 C-1.21502278 5.38704101 -2.67502077 7.07358864 -5 9 C-7.75 9.75 -7.75 9.75 -10 10 C-3.25842697 1.79775281 -3.25842697 1.79775281 0 0 Z " fill="#88B4D7" transform="translate(176,390)"/>
<path d="M0 0 C2.97 0.33 5.94 0.66 9 1 C8.67 1.66 8.34 2.32 8 3 C2.06 3 -3.88 3 -10 3 C-10 2.67 -10 2.34 -10 2 C-6.7 2 -3.4 2 0 2 C0 1.34 0 0.68 0 0 Z " fill="#8C9193" transform="translate(707,568)"/>
<path d="M0 0 C4.32862544 0.73239216 6.03005939 2.71682918 8.73828125 6.01171875 C10.65438882 9.03121953 10.85544936 11.45850926 11 15 C9.85775963 13.28663945 8.7203376 11.56998985 7.59765625 9.84375 C7.09105469 9.0703125 6.58445312 8.296875 6.0625 7.5 C5.55847656 6.7265625 5.05445313 5.953125 4.53515625 5.15625 C3.15255509 3.21427586 1.73979017 1.62034189 0 0 Z " fill="#354047" transform="translate(722,534)"/>
<path d="M0 0 C0.33 0.99 0.66 1.98 1 3 C-6.92 3 -14.84 3 -23 3 C-23 2.67 -23 2.34 -23 2 C-15.41 2 -7.82 2 0 2 C0 1.34 0 0.68 0 0 Z " fill="#EDEBE5" transform="translate(649,434)"/>
<path d="M0 0 C7.92 0 15.84 0 24 0 C24 0.33 24 0.66 24 1 C16.08 1 8.16 1 0 1 C0 0.67 0 0.34 0 0 Z " fill="#F1EDE7" transform="translate(453,504)"/>
<path d="M0 0 C6.6 0 13.2 0 20 0 C19.67 1.32 19.34 2.64 19 4 C19 3.01 19 2.02 19 1 C12.73 1 6.46 1 0 1 C0 0.67 0 0.34 0 0 Z " fill="#EFECE6" transform="translate(546,572)"/>
<path d="M0 0 C0.33 0 0.66 0 1 0 C1 7.59 1 15.18 1 23 C0.67 23 0.34 23 0 23 C0 15.41 0 7.82 0 0 Z " fill="#F0EEE7" transform="translate(685,409)"/>
<path d="M0 0 C1.21236328 0.04060547 1.21236328 0.04060547 2.44921875 0.08203125 C3.06410156 0.11683594 3.67898437 0.15164063 4.3125 0.1875 C2.60421079 2.29383718 1.79101584 3.12551608 -0.94921875 3.48046875 C-1.74972656 3.44566406 -2.55023438 3.41085937 -3.375 3.375 C-4.58736328 3.33439453 -4.58736328 3.33439453 -5.82421875 3.29296875 C-6.74654297 3.24076172 -6.74654297 3.24076172 -7.6875 3.1875 C-5.26849268 0.20484049 -3.789448 -0.16475861 0 0 Z " fill="#9CC1DC" transform="translate(236.6875,390.8125)"/>
<path d="M0 0 C7.26 0 14.52 0 22 0 C22 0.33 22 0.66 22 1 C14.74 1 7.48 1 0 1 C0 0.67 0 0.34 0 0 Z " fill="#EDEBE5" transform="translate(690,556)"/>
<path d="M0 0 C6.93 0 13.86 0 21 0 C21 0.33 21 0.66 21 1 C14.07 1 7.14 1 0 1 C0 0.67 0 0.34 0 0 Z " fill="#EBE8E3" transform="translate(491,484)"/>
<path d="M0 0 C0.33 0 0.66 0 1 0 C1 6.93 1 13.86 1 21 C0.67 21 0.34 21 0 21 C0 14.07 0 7.14 0 0 Z " fill="#EFEDE8" transform="translate(591,462)"/>
<path d="M0 0 C0.66 0 1.32 0 2 0 C1.814375 0.9075 1.62875 1.815 1.4375 2.75 C1.04265379 5.68314324 1.05308428 7.2644657 2 10 C1.34 10 0.68 10 0 10 C-2.21538462 4.58461538 -2.21538462 4.58461538 -1.125 1.625 C-0.75375 1.08875 -0.3825 0.5525 0 0 Z " fill="#82B1D6" transform="translate(243,438)"/>
<path d="M0 0 C6.6 0 13.2 0 20 0 C20 0.33 20 0.66 20 1 C13.4 1 6.8 1 0 1 C0 0.67 0 0.34 0 0 Z " fill="#EBE9E2" transform="translate(771,486)"/>
<path d="M0 0 C6.27 0 12.54 0 19 0 C19 0.33 19 0.66 19 1 C12.73 1 6.46 1 0 1 C0 0.67 0 0.34 0 0 Z " fill="#EDEBE5" transform="translate(738,484)"/>
<path d="M0 0 C6.27 0 12.54 0 19 0 C19 0.33 19 0.66 19 1 C12.73 1 6.46 1 0 1 C0 0.67 0 0.34 0 0 Z " fill="#EDEAE4" transform="translate(571,484)"/>
<path d="M0 0 C6.27 0 12.54 0 19 0 C19 0.33 19 0.66 19 1 C12.73 1 6.46 1 0 1 C0 0.67 0 0.34 0 0 Z " fill="#EDEBE5" transform="translate(440,484)"/>
<path d="M0 0 C6.27 0 12.54 0 19 0 C19 0.33 19 0.66 19 1 C12.73 1 6.46 1 0 1 C0 0.67 0 0.34 0 0 Z " fill="#EDEBE4" transform="translate(521,407)"/>
<path d="M0 0 C6.27 0 12.54 0 19 0 C19 0.33 19 0.66 19 1 C12.73 1 6.46 1 0 1 C0 0.67 0 0.34 0 0 Z " fill="#ECEAE3" transform="translate(628,406)"/>
<path d="M0 0 C0.99 0 1.98 0 3 0 C3 1.32 3 2.64 3 4 C2.34 4 1.68 4 1 4 C0.67 5.32 0.34 6.64 0 8 C-0.99 7.67 -1.98 7.34 -3 7 C-2.34 6.34 -1.68 5.68 -1 5 C-0.35232207 2.42938689 -0.35232207 2.42938689 0 0 Z " fill="#4C575B" transform="translate(641,580)"/>
<path d="M0 0 C5.94 0 11.88 0 18 0 C18 0.33 18 0.66 18 1 C12.06 1 6.12 1 0 1 C0 0.67 0 0.34 0 0 Z " fill="#EDEBE4" transform="translate(688,484)"/>
<path d="M0 0 C5.61 0 11.22 0 17 0 C16.67 0.66 16.34 1.32 16 2 C10.72 1.67 5.44 1.34 0 1 C0 0.67 0 0.34 0 0 Z " fill="#EDEAE4" transform="translate(634,452)"/>
<path d="M0 0 C0.33 0 0.66 0 1 0 C1 5.94 1 11.88 1 18 C0.67 18 0.34 18 0 18 C0 12.06 0 6.12 0 0 Z " fill="#EFEDE7" transform="translate(735,434)"/>
<path d="M0 0 C5.94 0 11.88 0 18 0 C18 0.33 18 0.66 18 1 C12.06 1 6.12 1 0 1 C0 0.67 0 0.34 0 0 Z " fill="#EAE8E1" transform="translate(606,433)"/>
<path d="M0 0 C0.99 0.33 1.98 0.66 3 1 C2.01 2.32 1.02 3.64 0 5 C-1.32 4.67 -2.64 4.34 -4 4 C-2.68 2.68 -1.36 1.36 0 0 Z " fill="#88B4D7" transform="translate(285,426)"/>
<path d="M0 0 C3.36179774 1.44077046 5.59156268 3.24750021 8 6 C8 6.66 8 7.32 8 8 C4.27382578 6.75794193 2.60708543 4.8889325 0 2 C0 1.34 0 0.68 0 0 Z " fill="#344046" transform="translate(818,413)"/>
<path d="M0 0 C5.94 0 11.88 0 18 0 C18 0.33 18 0.66 18 1 C12.06 1 6.12 1 0 1 C0 0.67 0 0.34 0 0 Z " fill="#EEECE4" transform="translate(825,407)"/>
<path d="M0 0 C5.94 0 11.88 0 18 0 C18 0.33 18 0.66 18 1 C12.06 1 6.12 1 0 1 C0 0.67 0 0.34 0 0 Z " fill="#EDEBE5" transform="translate(688,407)"/>
<path d="M0 0 C5.94 0 11.88 0 18 0 C18 0.33 18 0.66 18 1 C12.06 1 6.12 1 0 1 C0 0.67 0 0.34 0 0 Z " fill="#ECEAE4" transform="translate(571,407)"/>
<path d="M0 0 C0.66 0.66 1.32 1.32 2 2 C-0.97 4.475 -0.97 4.475 -4 7 C-4 4 -4 4 -2 1.8125 C-1.34 1.214375 -0.68 0.61625 0 0 Z " fill="#91B9DA" transform="translate(379,586)"/>
<path d="M0 0 C0.66 0.33 1.32 0.66 2 1 C0.35 2.98 -1.3 4.96 -3 7 C-3.99 6.67 -4.98 6.34 -6 6 C-4.02 4.02 -2.04 2.04 0 0 Z " fill="#4F595E" transform="translate(677,563)"/>
<path d="M0 0 C5.61 0 11.22 0 17 0 C17 0.33 17 0.66 17 1 C11.39 1 5.78 1 0 1 C0 0.67 0 0.34 0 0 Z " fill="#EDEAE4" transform="translate(544,556)"/>
<path d="M0 0 C5.61 0 11.22 0 17 0 C17 0.33 17 0.66 17 1 C11.39 1 5.78 1 0 1 C0 0.67 0 0.34 0 0 Z " fill="#EBE9E2" transform="translate(672,553)"/>
<path d="M0 0 C5.61 0 11.22 0 17 0 C17 0.33 17 0.66 17 1 C11.39 1 5.78 1 0 1 C0 0.67 0 0.34 0 0 Z " fill="#E8E6DF" transform="translate(641,553)"/>
<path d="M0 0 C5.61 0 11.22 0 17 0 C17 0.33 17 0.66 17 1 C11.39 1 5.78 1 0 1 C0 0.67 0 0.34 0 0 Z " fill="#ECEAE3" transform="translate(523,553)"/>
<path d="M0 0 C5.61 0 11.22 0 17 0 C17 0.33 17 0.66 17 1 C11.39 1 5.78 1 0 1 C0 0.67 0 0.34 0 0 Z " fill="#EAE8E1" transform="translate(653,484)"/>
<path d="M0 0 C0.33 0 0.66 0 1 0 C1 5.61 1 11.22 1 17 C0.67 17 0.34 17 0 17 C0 11.39 0 5.78 0 0 Z " fill="#F0EEE7" transform="translate(685,465)"/>
<path d="M0 0 C5.61 0 11.22 0 17 0 C17 0.33 17 0.66 17 1 C11.39 1 5.78 1 0 1 C0 0.67 0 0.34 0 0 Z " fill="#EEECE5" transform="translate(461,429)"/>
<path d="M0 0 C3.24208567 0.35049575 4.61527704 0.56221181 6.8125 3.0625 C7.204375 3.701875 7.59625 4.34125 8 5 C7.34 5.66 6.68 6.32 6 7 C5.938125 6.38125 5.87625 5.7625 5.8125 5.125 C5.171081 2.72238859 5.171081 2.72238859 2.4375 1.75 C1.633125 1.5025 0.82875 1.255 0 1 C0 0.67 0 0.34 0 0 Z " fill="#5B6569" transform="translate(643,423)"/>
<path d="M0 0 C5.28 0 10.56 0 16 0 C16 0.33 16 0.66 16 1 C10.72 1 5.44 1 0 1 C0 0.67 0 0.34 0 0 Z " fill="#EDEAE4" transform="translate(620,526)"/>
<path d="M0 0 C4.95 0 9.9 0 15 0 C15 0.33 15 0.66 15 1 C10.05 1 5.1 1 0 1 C0 0.67 0 0.34 0 0 Z " fill="#F0EDE7" transform="translate(570,604)"/>
<path d="M0 0 C4.95 0 9.9 0 15 0 C15 0.33 15 0.66 15 1 C10.05 1 5.1 1 0 1 C0 0.67 0 0.34 0 0 Z " fill="#F1EEE8" transform="translate(600,578)"/>
<path d="M0 0 C0.33 0 0.66 0 1 0 C1 4.95 1 9.9 1 15 C0.67 15 0.34 15 0 15 C0 10.05 0 5.1 0 0 Z " fill="#F0EDE7" transform="translate(735,467)"/>
<path d="M0 0 C0.33 0 0.66 0 1 0 C1 4.95 1 9.9 1 15 C0.67 15 0.34 15 0 15 C0 10.05 0 5.1 0 0 Z " fill="#ECEAE4" transform="translate(511,409)"/>
<path d="M0 0 C4.62 0 9.24 0 14 0 C14 0.33 14 0.66 14 1 C9.38 1 4.76 1 0 1 C0 0.67 0 0.34 0 0 Z " fill="#F1EEE8" transform="translate(720,604)"/>
<path d="M0 0 C3.63 0 7.26 0 11 0 C10.67 0.66 10.34 1.32 10 2 C6.7 2 3.4 2 0 2 C0 1.34 0 0.68 0 0 Z " fill="#EFECE5" transform="translate(461,450)"/>
<path d="M0 0 C3.3 0 6.6 0 10 0 C9.67 0.99 9.34 1.98 9 3 C9 2.34 9 1.68 9 1 C6.03 1 3.06 1 0 1 C0 0.67 0 0.34 0 0 Z " fill="#EFECE5" transform="translate(705,572)"/>
<path d="M0 0 C3.96 0 7.92 0 12 0 C12 0.33 12 0.66 12 1 C8.04 1 4.08 1 0 1 C0 0.67 0 0.34 0 0 Z " fill="#EFECE7" transform="translate(440,504)"/>
<path d="M0 0 C3.96 0 7.92 0 12 0 C12 0.33 12 0.66 12 1 C8.04 1 4.08 1 0 1 C0 0.67 0 0.34 0 0 Z " fill="#EEECE7" transform="translate(622,485)"/>
<path d="M0 0 C3.63 0 7.26 0 11 0 C11 0.33 11 0.66 11 1 C7.37 1 3.74 1 0 1 C0 0.67 0 0.34 0 0 Z " fill="#EEECE7" transform="translate(688,605)"/>
<path d="M0 0 C0.33 0 0.66 0 1 0 C1 3.63 1 7.26 1 11 C0.67 11 0.34 11 0 11 C0 7.37 0 3.74 0 0 Z " fill="#ECEAE3" transform="translate(666,576)"/>
<path d="M0 0 C0.33 0 0.66 0 1 0 C1 3.63 1 7.26 1 11 C0.67 11 0.34 11 0 11 C0 7.37 0 3.74 0 0 Z " fill="#EDEAE3" transform="translate(662,574)"/>
<path d="M0 0 C0.33 0 0.66 0 1 0 C1 3.3 1 6.6 1 10 C0.67 10 0.34 10 0 10 C0 6.7 0 3.4 0 0 Z " fill="#F0ECE6" transform="translate(517,576)"/>
<path d="M0 0 C3.3 0 6.6 0 10 0 C10 0.33 10 0.66 10 1 C6.7 1 3.4 1 0 1 C0 0.67 0 0.34 0 0 Z " fill="#E8E5DE" transform="translate(461,569)"/>
<path d="M0 0 C2.97 0 5.94 0 9 0 C9 0.33 9 0.66 9 1 C6.03 1 3.06 1 0 1 C0 0.67 0 0.34 0 0 Z " fill="#F0ECE6" transform="translate(695,572)"/>
<path d="M0 0 C2.97 0 5.94 0 9 0 C9 0.33 9 0.66 9 1 C6.03 1 3.06 1 0 1 C0 0.67 0 0.34 0 0 Z " fill="#EDEAE5" transform="translate(695,526)"/>
<path d="M0 0 C2.97 0 5.94 0 9 0 C9 0.33 9 0.66 9 1 C6.03 1 3.06 1 0 1 C0 0.67 0 0.34 0 0 Z " fill="#EDEAE4" transform="translate(545,526)"/>
<path d="M0 0 C2.97 0 5.94 0 9 0 C9 0.33 9 0.66 9 1 C6.03 1 3.06 1 0 1 C0 0.67 0 0.34 0 0 Z " fill="#EDE9E3" transform="translate(798,482)"/>
<path d="M0 0 C0.33 0 0.66 0 1 0 C1 2.97 1 5.94 1 9 C0.67 9 0.34 9 0 9 C0 6.03 0 3.06 0 0 Z " fill="#EEEBE4" transform="translate(766,440)"/>
<path d="M0 0 C0.33 0 0.66 0 1 0 C1 2.97 1 5.94 1 9 C0.67 9 0.34 9 0 9 C0 6.03 0 3.06 0 0 Z " fill="#EDE9E4" transform="translate(823,440)"/>
<path d="M0 0 C2.64 0 5.28 0 8 0 C8 0.33 8 0.66 8 1 C5.36 1 2.72 1 0 1 C0 0.67 0 0.34 0 0 Z " fill="#EFECE7" transform="translate(619,605)"/>
<path d="M0 0 C0.33 0 0.66 0 1 0 C1 2.64 1 5.28 1 8 C0.67 8 0.34 8 0 8 C0 5.36 0 2.72 0 0 Z " fill="#F3EFE9" transform="translate(588,593)"/>
<path d="M0 0 C0.33 0 0.66 0 1 0 C1 2.31 1 4.62 1 7 C0.67 7 0.34 7 0 7 C-0.38133299 5.0085944 -0.71325582 3.00720923 -1 1 C-0.67 0.67 -0.34 0.34 0 0 Z " fill="#EBE9E3" transform="translate(566,596)"/>
<path d="M0 0 C2.64 0 5.28 0 8 0 C8 0.33 8 0.66 8 1 C5.36 1 2.72 1 0 1 C0 0.67 0 0.34 0 0 Z " fill="#EEEAE5" transform="translate(546,587)"/>
<path d="M0 0 C0.33 0 0.66 0 1 0 C1 2.31 1 4.62 1 7 C-0.0625 5.1875 -0.0625 5.1875 -1 3 C-0.67 2.01 -0.34 1.02 0 0 Z " fill="#EBE9E2" transform="translate(650,476)"/>
<path d="M0 0 C0.33 0 0.66 0 1 0 C1 2.31 1 4.62 1 7 C-0.0625 5.1875 -0.0625 5.1875 -1 3 C-0.67 2.01 -0.34 1.02 0 0 Z " fill="#ECEAE5" transform="translate(569,476)"/>
<path d="M0 0 C0.33 0 0.66 0 1 0 C1 2.64 1 5.28 1 8 C0.67 8 0.34 8 0 8 C0 5.36 0 2.72 0 0 Z " fill="#ECEAE5" transform="translate(789,440)"/>
<path d="M0 0 C2.31 0 4.62 0 7 0 C7 0.33 7 0.66 7 1 C4.69 1 2.38 1 0 1 C0 0.67 0 0.34 0 0 Z " fill="#F1EFEA" transform="translate(442,604)"/>
<path d="M0 0 C2.31 0 4.62 0 7 0 C7 0.33 7 0.66 7 1 C4.69 1 2.38 1 0 1 C0 0.67 0 0.34 0 0 Z " fill="#EDEAE4" transform="translate(625,588)"/>
<path d="M0 0 C2.31 0 4.62 0 7 0 C7 0.33 7 0.66 7 1 C4.69 1 2.38 1 0 1 C0 0.67 0 0.34 0 0 Z " fill="#F1EEE8" transform="translate(696,587)"/>
<path d="M0 0 C1.98 0 3.96 0 6 0 C6 0.33 6 0.66 6 1 C4.02 1 2.04 1 0 1 C0 0.67 0 0.34 0 0 Z " fill="#EFECE7" transform="translate(544,605)"/>
<path d="M0 0 C0.33 0 0.66 0 1 0 C1 1.98 1 3.96 1 6 C0.67 6 0.34 6 0 6 C0 4.02 0 2.04 0 0 Z " fill="#EDE9E3" transform="translate(540,577)"/>
<path d="M0 0 C0.33 0 0.66 0 1 0 C1 1.98 1 3.96 1 6 C0.67 6 0.34 6 0 6 C0 4.02 0 2.04 0 0 Z " fill="#EDEBE3" transform="translate(596,548)"/>
<path d="M0 0 C1.98 0 3.96 0 6 0 C6 0.33 6 0.66 6 1 C4.02 1 2.04 1 0 1 C0 0.67 0 0.34 0 0 Z " fill="#EDEBE4" transform="translate(625,543)"/>
<path d="M0 0 C1.98 0 3.96 0 6 0 C6 0.33 6 0.66 6 1 C4.02 1 2.04 1 0 1 C0 0.67 0 0.34 0 0 Z " fill="#EAE9E2" transform="translate(555,526)"/>
<path d="M0 0 C1.98 0 3.96 0 6 0 C6 0.33 6 0.66 6 1 C4.02 1 2.04 1 0 1 C0 0.67 0 0.34 0 0 Z " fill="#ECEAE3" transform="translate(804,425)"/>
<path d="M0 0 C0.33 0 0.66 0 1 0 C1 1.98 1 3.96 1 6 C0.67 6 0.34 6 0 6 C0 4.02 0 2.04 0 0 Z " fill="#F1EFE9" transform="translate(569,409)"/>
<path d="M0 0 C1.98 0 3.96 0 6 0 C6 0.33 6 0.66 6 1 C4.02 1 2.04 1 0 1 C0 0.67 0 0.34 0 0 Z " fill="#EEECE5" transform="translate(804,406)"/>
<path d="M0 0 C1.65 0 3.3 0 5 0 C5 0.33 5 0.66 5 1 C3.35 1 1.7 1 0 1 C0 0.67 0 0.34 0 0 Z " fill="#EDEBE5" transform="translate(632,605)"/>
<path d="M0 0 C0.33 0 0.66 0 1 0 C1 1.65 1 3.3 1 5 C0.67 5 0.34 5 0 5 C0 3.35 0 1.7 0 0 Z " fill="#F3F0E8" transform="translate(461,597)"/>
<path d="M0 0 C0.33 0 0.66 0 1 0 C1 1.65 1 3.3 1 5 C0.67 5 0.34 5 0 5 C0 3.35 0 1.7 0 0 Z " fill="#EEEBE4" transform="translate(689,577)"/>
<path d="M0 0 C0.33 0 0.66 0 1 0 C1 1.65 1 3.3 1 5 C0.67 5 0.34 5 0 5 C0 3.35 0 1.7 0 0 Z " fill="#EFECE6" transform="translate(587,549)"/>
<path d="M0 0 C0.33 0 0.66 0 1 0 C1 1.65 1 3.3 1 5 C0.67 5 0.34 5 0 5 C0 3.35 0 1.7 0 0 Z " fill="#EDEAE5" transform="translate(619,547)"/>
<path d="M0 0 C0.33 0 0.66 0 1 0 C1 1.65 1 3.3 1 5 C0.67 5 0.34 5 0 5 C0 3.35 0 1.7 0 0 Z " fill="#F0EDE8" transform="translate(488,534)"/>
<path d="M0 0 C1.65 0 3.3 0 5 0 C5 0.33 5 0.66 5 1 C3.35 1 1.7 1 0 1 C0 0.67 0 0.34 0 0 Z " fill="#ECE9E2" transform="translate(705,526)"/>
<path d="M0 0 C1.65 0 3.3 0 5 0 C5 0.33 5 0.66 5 1 C3.35 1 1.7 1 0 1 C0 0.67 0 0.34 0 0 Z " fill="#F1EEE7" transform="translate(802,495)"/>
<path d="M0 0 C1.65 0 3.3 0 5 0 C5 0.33 5 0.66 5 1 C3.35 1 1.7 1 0 1 C0 0.67 0 0.34 0 0 Z " fill="#EFEEE8" transform="translate(549,485)"/>
<path d="M0 0 C1.65 0 3.3 0 5 0 C5 0.33 5 0.66 5 1 C3.35 1 1.7 1 0 1 C0 0.67 0 0.34 0 0 Z " fill="#ECE9E5" transform="translate(541,485)"/>
<path d="M0 0 C0.33 0 0.66 0 1 0 C1 1.65 1 3.3 1 5 C0.67 5 0.34 5 0 5 C0 3.35 0 1.7 0 0 Z " fill="#EDECE6" transform="translate(823,473)"/>
<path d="M0 0 C1.65 0 3.3 0 5 0 C5 0.33 5 0.66 5 1 C3.35 1 1.7 1 0 1 C0 0.67 0 0.34 0 0 Z " fill="#EEECE5" transform="translate(552,466)"/>
<path d="M0 0 C1.65 0 3.3 0 5 0 C5 0.33 5 0.66 5 1 C3.35 1 1.7 1 0 1 C0 0.67 0 0.34 0 0 Z " fill="#EFEDE6" transform="translate(801,462)"/>
<path d="M0 0 C0.33 0 0.66 0 1 0 C1 1.65 1 3.3 1 5 C0.67 5 0.34 5 0 5 C0 3.35 0 1.7 0 0 Z " fill="#EFEDE7" transform="translate(519,457)"/>
<path d="M0 0 C1.65 0 3.3 0 5 0 C5 0.33 5 0.66 5 1 C3.35 1 1.7 1 0 1 C0 0.67 0 0.34 0 0 Z " fill="#EDEAE3" transform="translate(723,426)"/>
<path d="M0 0 C1.65 0 3.3 0 5 0 C5 0.33 5 0.66 5 1 C3.35 1 1.7 1 0 1 C0 0.67 0 0.34 0 0 Z " fill="#EEEBE5" transform="translate(717,426)"/>
<path d="M0 0 C0.33 0 0.66 0 1 0 C1 1.65 1 3.3 1 5 C0.67 5 0.34 5 0 5 C0 3.35 0 1.7 0 0 Z " fill="#EFECE6" transform="translate(708,410)"/>
<path d="M0 0 C1.65 0 3.3 0 5 0 C5 0.33 5 0.66 5 1 C3.35 1 1.7 1 0 1 C0 0.67 0 0.34 0 0 Z " fill="#EDEAE3" transform="translate(720,406)"/>
<path d="M0 0 C4 1 4 1 4 1 Z " fill="#EDECE6" transform="translate(539,605)"/>
<path d="M0 0 C4 1 4 1 4 1 Z " fill="#EFEBE6" transform="translate(685,557)"/>
<path d="M0 0 C4 1 4 1 4 1 Z " fill="#EDEAE4" transform="translate(639,557)"/>
<path d="M0 0 C4 1 4 1 4 1 Z " fill="#F2EEE8" transform="translate(630,555)"/>
<path d="M0 0 C1 4 1 4 1 4 Z " fill="#EEEBE4" transform="translate(659,546)"/>
<path d="M0 0 C1 4 1 4 1 4 Z " fill="#EFEBE6" transform="translate(511,542)"/>
<path d="M0 0 C4 1 4 1 4 1 Z " fill="#EFECE6" transform="translate(540,527)"/>
<path d="M0 0 C4 1 4 1 4 1 Z " fill="#F0EDE6" transform="translate(478,525)"/>
<path d="M0 0 C4 1 4 1 4 1 Z " fill="#EFEBE5" transform="translate(810,513)"/>
<path d="M0 0 C4 1 4 1 4 1 Z " fill="#EFEDE5" transform="translate(795,513)"/>
<path d="M0 0 C4 1 4 1 4 1 Z " fill="#ECE8E3" transform="translate(792,481)"/>
<path d="M0 0 C1 4 1 4 1 4 Z " fill="#EFECE6" transform="translate(601,462)"/>
<path d="M0 0 C1 4 1 4 1 4 Z " fill="#ECEAE3" transform="translate(624,458)"/>
<path d="M0 0 C4 1 4 1 4 1 Z " fill="#F0EBE5" transform="translate(621,437)"/>
<path d="M0 0 C1 4 1 4 1 4 Z " fill="#F1EEE9" transform="translate(846,432)"/>
<path d="M0 0 C4 1 4 1 4 1 Z " fill="#EDEBE4" transform="translate(795,406)"/>
<path d="M0 0 C4 1 4 1 4 1 Z " fill="#EEEAE4" transform="translate(733,406)"/>
<path d="M0 0 C3 1 3 1 3 1 Z " fill="#ECE9E2" transform="translate(639,604)"/>
<path d="M0 0 C3 1 3 1 3 1 Z " fill="#F2EFE9" transform="translate(615,604)"/>
<path d="M0 0 C3 1 3 1 3 1 Z " fill="#F3EFEA" transform="translate(453,604)"/>
<path d="M0 0 C0.33 0.66 0.66 1.32 1 2 C0.34 1.67 -0.32 1.34 -1 1 C-0.67 0.67 -0.34 0.34 0 0 Z " fill="#F3F0EA" transform="translate(714,597)"/>
<path d="" fill="#EDE9E4" transform="translate(0,0)"/>
<path d="M0 0 C3 1 3 1 3 1 Z " fill="#F0EEE7" transform="translate(632,576)"/>
<path d="" fill="#F0ECE6" transform="translate(0,0)"/>
<path d="M0 0 C3 1 3 1 3 1 Z " fill="#F1EEE8" transform="translate(618,573)"/>
<path d="" fill="#F2EEE7" transform="translate(0,0)"/>
<path d="M0 0 C3 1 3 1 3 1 Z " fill="#EFECE7" transform="translate(614,572)"/>
<path d="M0 0 C3 1 3 1 3 1 Z " fill="#F0EEE8" transform="translate(533,558)"/>
<path d="M0 0 C3 1 3 1 3 1 Z " fill="#EAE7E2" transform="translate(635,556)"/>
<path d="M0 0 C3 1 3 1 3 1 Z " fill="#EEEBE3" transform="translate(476,548)"/>
<path d="" fill="#F2EFEA" transform="translate(0,0)"/>
<path d="" fill="#EFEBE4" transform="translate(0,0)"/>
<path d="M0 0 C3 1 3 1 3 1 Z " fill="#EFECE6" transform="translate(704,544)"/>
<path d="" fill="#EEEAE5" transform="translate(0,0)"/>
<path d="M0 0 C3 1 3 1 3 1 Z " fill="#F1EEE7" transform="translate(712,527)"/>
<path d="M0 0 C3 1 3 1 3 1 Z " fill="#EBE9E2" transform="translate(689,527)"/>
<path d="M0 0 C3 1 3 1 3 1 Z " fill="#EEECE6" transform="translate(637,527)"/>
<path d="M0 0 C3 1 3 1 3 1 Z " fill="#EEEBE5" transform="translate(563,527)"/>
<path d="M0 0 C3 1 3 1 3 1 Z " fill="#EDEAE3" transform="translate(815,512)"/>
<path d="M0 0 C3 1 3 1 3 1 Z " fill="#F0EFE8" transform="translate(484,505)"/>
<path d="M0 0 C3 1 3 1 3 1 Z " fill="#EFECE7" transform="translate(809,494)"/>
<path d="M0 0 C3 1 3 1 3 1 Z " fill="#EFECE5" transform="translate(797,494)"/>
<path d="" fill="#EAE8E2" transform="translate(0,0)"/>
<path d="" fill="#EFEDE6" transform="translate(0,0)"/>
<path d="M0 0 C3 1 3 1 3 1 Z " fill="#F1EDE9" transform="translate(636,484)"/>
<path d="" fill="#F1EEE7" transform="translate(0,0)"/>
<path d="M0 0 C3 1 3 1 3 1 Z " fill="#EFECE6" transform="translate(789,480)"/>
<path d="" fill="#F1EEE8" transform="translate(0,0)"/>
<path d="M0 0 C3 1 3 1 3 1 Z " fill="#F0EDE6" transform="translate(809,462)"/>
<path d="" fill="#EEEBE5" transform="translate(0,0)"/>
<path d="M0 0 C3 1 3 1 3 1 Z " fill="#F0EDE7" transform="translate(618,438)"/>
<path d="" fill="#F0EEE8" transform="translate(0,0)"/>
<path d="" fill="#EEEBE4" transform="translate(0,0)"/>
<path d="M0 0 C3 1 3 1 3 1 Z " fill="#F0EEE7" transform="translate(799,426)"/>
<path d="M0 0 C3 1 3 1 3 1 Z " fill="#EFECE6" transform="translate(639,424)"/>
<path d="M0 0 C3 1 3 1 3 1 Z " fill="#EAE8E1" transform="translate(633,424)"/>
<path d="" fill="#ECE8E3" transform="translate(0,0)"/>
<path d="" fill="#F2EFE8" transform="translate(0,0)"/>
<path d="M0 0 C3 1 3 1 3 1 Z " fill="#EFEDE5" transform="translate(791,407)"/>
<path d="M0 0 C3 1 3 1 3 1 Z " fill="#EEECE7" transform="translate(648,407)"/>
<path d="M0 0 C3 1 3 1 3 1 Z " fill="#F0EDE7" transform="translate(479,406)"/>
<path d="M0 0 C3 1 3 1 3 1 Z " fill="#EBE9E3" transform="translate(484,386)"/>
<path d="M0 0 C2 1 2 1 2 1 Z " fill="#F2EFEA" transform="translate(717,604)"/>
<path d="M0 0 C2 1 2 1 2 1 Z " fill="#EEEDE6" transform="translate(701,604)"/>
<path d="M0 0 C2 1 2 1 2 1 Z " fill="#EEEBE3" transform="translate(683,604)"/>
<path d="M0 0 C2 1 2 1 2 1 Z " fill="#EEECE5" transform="translate(552,604)"/>
<path d="M0 0 C2 1 2 1 2 1 Z " fill="#EFECE5" transform="translate(534,604)"/>
<path d="M0 0 C2 1 2 1 2 1 Z " fill="#F2F0E9" transform="translate(507,604)"/>
<path d="M0 0 C2 1 2 1 2 1 Z " fill="#F3EFE8" transform="translate(504,604)"/>
<path d="M0 0 C2 1 2 1 2 1 Z " fill="#F4F0E9" transform="translate(495,604)"/>
<path d="M0 0 C2 1 2 1 2 1 Z " fill="#F2EEE8" transform="translate(643,603)"/>
<path d="M0 0 C2 1 2 1 2 1 Z " fill="#F1EFE8" transform="translate(645,602)"/>
<path d="M0 0 C2 1 2 1 2 1 Z " fill="#F1EDE4" transform="translate(610,602)"/>
<path d="M0 0 C2 1 2 1 2 1 Z " fill="#F2EFE9" transform="translate(561,600)"/>
<path d="" fill="#F3F1E9" transform="translate(0,0)"/>
<path d="" fill="#F0EEE8" transform="translate(0,0)"/>
<path d="" fill="#F0EEE6" transform="translate(0,0)"/>
<path d="" fill="#F1EDE9" transform="translate(0,0)"/>
<path d="" fill="#EFECE6" transform="translate(0,0)"/>
<path d="M0 0 C2 1 2 1 2 1 Z " fill="#F0EEE7" transform="translate(634,587)"/>
<path d="M0 0 C2 1 2 1 2 1 Z " fill="#F1EDE6" transform="translate(543,586)"/>
<path d="" fill="#F2EEE7" transform="translate(0,0)"/>
<path d="" fill="#F1F0E9" transform="translate(0,0)"/>
<path d="" fill="#F0EEE7" transform="translate(0,0)"/>
<path d="" fill="#EDEBE6" transform="translate(0,0)"/>
<path d="" fill="#EEEDE9" transform="translate(0,0)"/>
<path d="M0 0 C2 1 2 1 2 1 Z " fill="#F1EFE9" transform="translate(635,577)"/>
<path d="" fill="#F2F0E9" transform="translate(0,0)"/>
<path d="M0 0 C2 1 2 1 2 1 Z " fill="#EFECE7" transform="translate(628,575)"/>
<path d="M0 0 C2 1 2 1 2 1 Z " fill="#EFECE7" transform="translate(623,574)"/>
<path d="" fill="#F3F0E8" transform="translate(0,0)"/>
<path d="M0 0 C2 1 2 1 2 1 Z " fill="#F3F0E9" transform="translate(692,573)"/>
<path d="M0 0 C2 1 2 1 2 1 Z " fill="#F2EFE9" transform="translate(543,573)"/>
<path d="" fill="#F1EFE9" transform="translate(0,0)"/>
<path d="M0 0 C2 1 2 1 2 1 Z " fill="#F3EFE9" transform="translate(609,570)"/>
<path d="M0 0 C2 1 2 1 2 1 Z " fill="#F3F0EB" transform="translate(493,565)"/>
<path d="M0 0 C2 1 2 1 2 1 Z " fill="#F2EDE9" transform="translate(680,559)"/>
<path d="M0 0 C2 1 2 1 2 1 Z " fill="#EFECE5" transform="translate(531,559)"/>
<path d="M0 0 C2 1 2 1 2 1 Z " fill="#EDE9E2" transform="translate(683,558)"/>
<path d="M0 0 C2 1 2 1 2 1 Z " fill="#EFEDE8" transform="translate(644,558)"/>
<path d="" fill="#EFECE6" transform="translate(0,0)"/>
<path d="M0 0 C2 1 2 1 2 1 Z " fill="#EDEBE4" transform="translate(537,557)"/>
<path d="M0 0 C2 1 2 1 2 1 Z " fill="#ECE8E3" transform="translate(713,556)"/>
<path d="M0 0 C2 1 2 1 2 1 Z " fill="#EFEBE6" transform="translate(564,556)"/>
<path d="" fill="#EFECE4" transform="translate(0,0)"/>
<path d="" fill="#EFEBE5" transform="translate(0,0)"/>
<path d="" fill="#F0EDE6" transform="translate(0,0)"/>
<path d="" fill="#F1EDE8" transform="translate(0,0)"/>
<path d="" fill="#EFEDE6" transform="translate(0,0)"/>
<path d="" fill="#F0F0E8" transform="translate(0,0)"/>
<path d="" fill="#EFEDE7" transform="translate(0,0)"/>
<path d="" fill="#F1F0EB" transform="translate(0,0)"/>
<path d="M0 0 C2 1 2 1 2 1 Z " fill="#EDEAE2" transform="translate(697,544)"/>
<path d="" fill="#EFECE4" transform="translate(0,0)"/>
<path d="M0 0 C2 1 2 1 2 1 Z " fill="#EFECE7" transform="translate(633,544)"/>
<path d="" fill="#EDEBE3" transform="translate(0,0)"/>
<path d="M0 0 C2 1 2 1 2 1 Z " fill="#EFECE5" transform="translate(556,544)"/>
<path d="M0 0 C2 1 2 1 2 1 Z " fill="#EBE8E2" transform="translate(548,544)"/>
<path d="" fill="#F1EEE8" transform="translate(0,0)"/>
<path d="" fill="#F1EDE6" transform="translate(0,0)"/>
<path d="" fill="#F3EFEA" transform="translate(0,0)"/>
<path d="" fill="#F1EFE7" transform="translate(0,0)"/>
<path d="" fill="#ECEAE4" transform="translate(0,0)"/>
<path d="" fill="#EEEAE5" transform="translate(0,0)"/>
<path d="M0 0 C2 1 2 1 2 1 Z " fill="#F2F0E8" transform="translate(608,530)"/>
<path d="M0 0 C2 1 2 1 2 1 Z " fill="#F2EFE9" transform="translate(610,529)"/>
<path d="M0 0 C2 1 2 1 2 1 Z " fill="#EFEDE6" transform="translate(567,528)"/>
<path d="M0 0 C2 1 2 1 2 1 Z " fill="#EAE9E0" transform="translate(616,527)"/>
<path d="" fill="#EFEFE8" transform="translate(0,0)"/>
<path d="" fill="#EEF0EA" transform="translate(0,0)"/>
<path d="M0 0 C2 1 2 1 2 1 Z " fill="#EFEDE6" transform="translate(489,506)"/>
<path d="M0 0 C2 1 2 1 2 1 Z " fill="#F0EDE7" transform="translate(813,493)"/>
<path d="" fill="#EDEAE3" transform="translate(0,0)"/>
<path d="" fill="#F1EFE7" transform="translate(0,0)"/>
<path d="" fill="#EEEAE4" transform="translate(0,0)"/>
<path d="" fill="#EEEBE4" transform="translate(0,0)"/>
<path d="M0 0 C2 1 2 1 2 1 Z " fill="#EEECE6" transform="translate(618,484)"/>
<path d="M0 0 C2 1 2 1 2 1 Z " fill="#EEEDE5" transform="translate(557,484)"/>
<path d="M0 0 C2 1 2 1 2 1 Z " fill="#F2EDE7" transform="translate(538,484)"/>
<path d="M0 0 C2 1 2 1 2 1 Z " fill="#F1EDE7" transform="translate(640,483)"/>
<path d="M0 0 C2 1 2 1 2 1 Z " fill="#F2EFE9" transform="translate(642,482)"/>
<path d="" fill="#EFECE5" transform="translate(0,0)"/>
<path d="M0 0 C2 1 2 1 2 1 Z " fill="#F0ECE6" transform="translate(817,478)"/>
<path d="" fill="#F2F1E9" transform="translate(0,0)"/>
<path d="" fill="#F1ECE6" transform="translate(0,0)"/>
<path d="" fill="#EFEEE6" transform="translate(0,0)"/>
<path d="M0 0 C2 1 2 1 2 1 Z " fill="#F0EFE8" transform="translate(630,467)"/>
<path d="M0 0 C2 1 2 1 2 1 Z " fill="#F3EFE8" transform="translate(548,465)"/>
<path d="" fill="#F1EEE8" transform="translate(0,0)"/>
<path d="M0 0 C2 1 2 1 2 1 Z " fill="#F2EFE9" transform="translate(813,461)"/>
<path d="" fill="#F0EEE6" transform="translate(0,0)"/>
<path d="" fill="#F0EDE7" transform="translate(0,0)"/>
<path d="" fill="#F1EEE6" transform="translate(0,0)"/>
<path d="M0 0 C2 1 2 1 2 1 Z " fill="#EEECE5" transform="translate(628,453)"/>
<path d="" fill="#F1EFE8" transform="translate(0,0)"/>
<path d="" fill="#F1EEE9" transform="translate(0,0)"/>
<path d="" fill="#F1EFE8" transform="translate(0,0)"/>
<path d="" fill="#F4F0EB" transform="translate(0,0)"/>
<path d="" fill="#F2F0E8" transform="translate(0,0)"/>
<path d="M0 0 C2 1 2 1 2 1 Z " fill="#F0EEE7" transform="translate(616,439)"/>
<path d="" fill="#F1EFE8" transform="translate(0,0)"/>
<path d="" fill="#EFECE7" transform="translate(0,0)"/>
<path d="" fill="#F3F0EA" transform="translate(0,0)"/>
<path d="" fill="#EAE7DF" transform="translate(0,0)"/>
<path d="M0 0 C2 1 2 1 2 1 Z " fill="#EDEAE1" transform="translate(480,428)"/>
<path d="M0 0 C2 1 2 1 2 1 Z " fill="#EFECE6" transform="translate(814,427)"/>
<path d="" fill="#F1EFE8" transform="translate(0,0)"/>
<path d="" fill="#EDEBE4" transform="translate(0,0)"/>
<path d="M0 0 C2 1 2 1 2 1 Z " fill="#F1EDE7" transform="translate(812,426)"/>
<path d="" fill="#F0EDE6" transform="translate(0,0)"/>
<path d="" fill="#EFEDE5" transform="translate(0,0)"/>
<path d="" fill="#ECE9E2" transform="translate(0,0)"/>
<path d="M0 0 C2 1 2 1 2 1 Z " fill="#EEEBE5" transform="translate(811,407)"/>
<path d="M0 0 C2 1 2 1 2 1 Z " fill="#F1EEE7" transform="translate(738,407)"/>
<path d="M0 0 C2 1 2 1 2 1 Z " fill="#F1EDE7" transform="translate(718,407)"/>
<path d="M0 0 C2 1 2 1 2 1 Z " fill="#EAE8E1" transform="translate(625,407)"/>
<path d="" fill="#EDEAE3" transform="translate(0,0)"/>
<path d="" fill="#EEECE4" transform="translate(0,0)"/>
<path d="M0 0 C2 1 2 1 2 1 Z " fill="#EDECE3" transform="translate(492,388)"/>
<path d="M0 0 C2 1 2 1 2 1 Z " fill="#F0EEE6" transform="translate(489,387)"/>
<path d="" fill="#EBECE9" transform="translate(0,0)"/>
<path d="" fill="#F1EFE9" transform="translate(0,0)"/>
<path d="" fill="#F2EEE7" transform="translate(0,0)"/>
<path d="" fill="#F0EEE9" transform="translate(0,0)"/>
<path d="" fill="#F3F0EA" transform="translate(0,0)"/>
<path d="" fill="#F1EDE5" transform="translate(0,0)"/>
<path d="" fill="#F2EEE8" transform="translate(0,0)"/>
<path d="" fill="#E9E6E1" transform="translate(0,0)"/>
<path d="" fill="#F4EFEA" transform="translate(0,0)"/>
<path d="" fill="#F2F1EA" transform="translate(0,0)"/>
<path d="" fill="#F0EDE6" transform="translate(0,0)"/>
<path d="" fill="#EBEBE3" transform="translate(0,0)"/>
<path d="" fill="#F3EFE9" transform="translate(0,0)"/>
<path d="" fill="#F2EFE8" transform="translate(0,0)"/>
<path d="" fill="#F1EFE9" transform="translate(0,0)"/>
<path d="" fill="#EDEBE4" transform="translate(0,0)"/>
<path d="" fill="#F1EEE7" transform="translate(0,0)"/>
<path d="" fill="#F0EDE9" transform="translate(0,0)"/>
<path d="" fill="#F4F2E9" transform="translate(0,0)"/>
<path d="" fill="#F2EEE7" transform="translate(0,0)"/>
<path d="" fill="#F6F2EB" transform="translate(0,0)"/>
<path d="" fill="#F3EFEA" transform="translate(0,0)"/>
<path d="" fill="#F4F1EA" transform="translate(0,0)"/>
<path d="" fill="#EFECE5" transform="translate(0,0)"/>
<path d="" fill="#F2F1E9" transform="translate(0,0)"/>
<path d="" fill="#F1F0EB" transform="translate(0,0)"/>
<path d="" fill="#F1EDE8" transform="translate(0,0)"/>
<path d="" fill="#F0ECE6" transform="translate(0,0)"/>
<path d="" fill="#EEEBE4" transform="translate(0,0)"/>
<path d="" fill="#F3F0E9" transform="translate(0,0)"/>
<path d="" fill="#F0E9E5" transform="translate(0,0)"/>
<path d="" fill="#F4F0E9" transform="translate(0,0)"/>
<path d="" fill="#F4F2EB" transform="translate(0,0)"/>
<path d="" fill="#F2EEE7" transform="translate(0,0)"/>
<path d="" fill="#EFEFE7" transform="translate(0,0)"/>
<path d="" fill="#EFEDE5" transform="translate(0,0)"/>
<path d="" fill="#F2EFE9" transform="translate(0,0)"/>
<path d="" fill="#F2EFE9" transform="translate(0,0)"/>
<path d="" fill="#F4F0E9" transform="translate(0,0)"/>
<path d="" fill="#EFEBE4" transform="translate(0,0)"/>
<path d="" fill="#EDEBE2" transform="translate(0,0)"/>
<path d="" fill="#F2EFE8" transform="translate(0,0)"/>
<path d="" fill="#F3F2EB" transform="translate(0,0)"/>
<path d="" fill="#F3EFE8" transform="translate(0,0)"/>
<path d="" fill="#F2EFEA" transform="translate(0,0)"/>
<path d="" fill="#F1EFE7" transform="translate(0,0)"/>
<path d="" fill="#F1EFE9" transform="translate(0,0)"/>
<path d="" fill="#F1EFEA" transform="translate(0,0)"/>
<path d="" fill="#EDEAE5" transform="translate(0,0)"/>
<path d="" fill="#F4F1E9" transform="translate(0,0)"/>
<path d="" fill="#ECEAE4" transform="translate(0,0)"/>
<path d="" fill="#ECE9E4" transform="translate(0,0)"/>
<path d="" fill="#EDECE5" transform="translate(0,0)"/>
<path d="" fill="#F4EEEA" transform="translate(0,0)"/>
<path d="" fill="#F2F0E7" transform="translate(0,0)"/>
<path d="" fill="#F1EFE7" transform="translate(0,0)"/>
<path d="" fill="#F1EFE7" transform="translate(0,0)"/>
<path d="" fill="#F3F0EA" transform="translate(0,0)"/>
<path d="" fill="#F2F0E9" transform="translate(0,0)"/>
<path d="" fill="#EFEFE9" transform="translate(0,0)"/>
<path d="" fill="#F2F0E8" transform="translate(0,0)"/>
<path d="" fill="#F2EEEA" transform="translate(0,0)"/>
<path d="" fill="#F2F1E9" transform="translate(0,0)"/>
<path d="" fill="#F4F1EB" transform="translate(0,0)"/>
<path d="" fill="#F0EEE8" transform="translate(0,0)"/>
<path d="" fill="#F3EEE8" transform="translate(0,0)"/>
<path d="" fill="#F0ECE8" transform="translate(0,0)"/>
<path d="" fill="#F2EEE7" transform="translate(0,0)"/>
<path d="" fill="#F3F1EB" transform="translate(0,0)"/>
<path d="" fill="#EEEAE7" transform="translate(0,0)"/>
<path d="" fill="#F4F0EA" transform="translate(0,0)"/>
<path d="" fill="#F0EDE6" transform="translate(0,0)"/>
<path d="" fill="#F2EEE7" transform="translate(0,0)"/>
<path d="" fill="#EFECE5" transform="translate(0,0)"/>
<path d="" fill="#F5F2EB" transform="translate(0,0)"/>
<path d="" fill="#F1ECE6" transform="translate(0,0)"/>
<path d="" fill="#F2EDE9" transform="translate(0,0)"/>
<path d="" fill="#EEEAE6" transform="translate(0,0)"/>
<path d="" fill="#F5F0E8" transform="translate(0,0)"/>
<path d="" fill="#F3EFE8" transform="translate(0,0)"/>
<path d="" fill="#F0ECE6" transform="translate(0,0)"/>
<path d="" fill="#ECEBE5" transform="translate(0,0)"/>
<path d="" fill="#F2F0EA" transform="translate(0,0)"/>
<path d="" fill="#F2F1E8" transform="translate(0,0)"/>
<path d="" fill="#EFEEE8" transform="translate(0,0)"/>
<path d="" fill="#F2EFE8" transform="translate(0,0)"/>
<path d="" fill="#F2EFEB" transform="translate(0,0)"/>
<path d="" fill="#F3F0EA" transform="translate(0,0)"/>
<path d="" fill="#F1EFE8" transform="translate(0,0)"/>
<path d="" fill="#F4EFE9" transform="translate(0,0)"/>
<path d="" fill="#F1EEEC" transform="translate(0,0)"/>
<path d="" fill="#F2EFE8" transform="translate(0,0)"/>
<path d="" fill="#F3EFE9" transform="translate(0,0)"/>
<path d="" fill="#ECE9E3" transform="translate(0,0)"/>
<path d="" fill="#EFEFEA" transform="translate(0,0)"/>
<path d="" fill="#F1F0EB" transform="translate(0,0)"/>
<path d="" fill="#F0EDE5" transform="translate(0,0)"/>
<path d="" fill="#EEECE7" transform="translate(0,0)"/>
<path d="" fill="#ECEAE3" transform="translate(0,0)"/>
<path d="" fill="#EEECE7" transform="translate(0,0)"/>
<path d="" fill="#F5EFEA" transform="translate(0,0)"/>
<path d="" fill="#F3F0EB" transform="translate(0,0)"/>
<path d="" fill="#EDEAE8" transform="translate(0,0)"/>
<path d="" fill="#F3F0E9" transform="translate(0,0)"/>
<path d="" fill="#F2EFE8" transform="translate(0,0)"/>
<path d="" fill="#ECE9E3" transform="translate(0,0)"/>
<path d="" fill="#F0ECE5" transform="translate(0,0)"/>
<path d="" fill="#ECE8E2" transform="translate(0,0)"/>
<path d="" fill="#F1EFEA" transform="translate(0,0)"/>
<path d="" fill="#EFEAE4" transform="translate(0,0)"/>
<path d="" fill="#F3EFE9" transform="translate(0,0)"/>
<path d="" fill="#F1ECE6" transform="translate(0,0)"/>
<path d="" fill="#EEEEE7" transform="translate(0,0)"/>
<path d="" fill="#F1EEE8" transform="translate(0,0)"/>
<path d="" fill="#F3F0E9" transform="translate(0,0)"/>
<path d="" fill="#F0EFE6" transform="translate(0,0)"/>
<path d="" fill="#F4EEE9" transform="translate(0,0)"/>
<path d="" fill="#F1EDE9" transform="translate(0,0)"/>
<path d="" fill="#F2F0E9" transform="translate(0,0)"/>
<path d="" fill="#EFEBE6" transform="translate(0,0)"/>
<path d="" fill="#F1EDE7" transform="translate(0,0)"/>
<path d="" fill="#F3EEE8" transform="translate(0,0)"/>
<path d="" fill="#EEECE5" transform="translate(0,0)"/>
<path d="" fill="#F2EEE7" transform="translate(0,0)"/>
<path d="" fill="#EEECE5" transform="translate(0,0)"/>
<path d="" fill="#F1EFE9" transform="translate(0,0)"/>
<path d="" fill="#EDEAE4" transform="translate(0,0)"/>
<path d="" fill="#EAECEA" transform="translate(0,0)"/>
<path d="" fill="#F1EDE6" transform="translate(0,0)"/>
<path d="" fill="#F0EFE8" transform="translate(0,0)"/>
<path d="" fill="#F2EFEA" transform="translate(0,0)"/>
<path d="" fill="#F0EFEA" transform="translate(0,0)"/>
<path d="" fill="#F0EDE5" transform="translate(0,0)"/>
<path d="" fill="#F1EFE7" transform="translate(0,0)"/>
<path d="" fill="#F3F0ED" transform="translate(0,0)"/>
<path d="" fill="#F0F0E7" transform="translate(0,0)"/>
<path d="" fill="#F1EDE6" transform="translate(0,0)"/>
<path d="" fill="#F1EFE8" transform="translate(0,0)"/>
<path d="" fill="#F4EFEB" transform="translate(0,0)"/>
<path d="" fill="#F3F0E8" transform="translate(0,0)"/>
<path d="" fill="#F2EFE9" transform="translate(0,0)"/>
<path d="" fill="#F3F0E9" transform="translate(0,0)"/>
<path d="" fill="#F3EDE7" transform="translate(0,0)"/>
<path d="" fill="#F2EEE9" transform="translate(0,0)"/>
<path d="" fill="#F1EFE7" transform="translate(0,0)"/>
<path d="" fill="#F0EDE6" transform="translate(0,0)"/>
<path d="" fill="#F1EEE5" transform="translate(0,0)"/>
<path d="" fill="#F3EFE7" transform="translate(0,0)"/>
<path d="" fill="#F3F1E8" transform="translate(0,0)"/>
<path d="" fill="#F3EFE8" transform="translate(0,0)"/>
<path d="" fill="#F3EFE8" transform="translate(0,0)"/>
<path d="" fill="#F2EFE9" transform="translate(0,0)"/>
<path d="" fill="#F4F1EA" transform="translate(0,0)"/>
<path d="" fill="#F2EFE9" transform="translate(0,0)"/>
<path d="" fill="#F3EFEB" transform="translate(0,0)"/>
<path d="" fill="#F3EFEA" transform="translate(0,0)"/>
<path d="" fill="#F3EEE8" transform="translate(0,0)"/>
<path d="" fill="#F1F0EA" transform="translate(0,0)"/>
<path d="" fill="#E9E8E1" transform="translate(0,0)"/>
<path d="" fill="#EBE9E1" transform="translate(0,0)"/>
<path d="" fill="#F3EFEB" transform="translate(0,0)"/>
<path d="" fill="#F0ECE5" transform="translate(0,0)"/>
<path d="" fill="#ECEBE2" transform="translate(0,0)"/>
<path d="" fill="#F1F0EA" transform="translate(0,0)"/>
<path d="" fill="#F0EBE7" transform="translate(0,0)"/>
<path d="" fill="#F1EFE7" transform="translate(0,0)"/>
<path d="" fill="#F1EDE7" transform="translate(0,0)"/>
<path d="" fill="#F3F0EB" transform="translate(0,0)"/>
<path d="" fill="#EFECE5" transform="translate(0,0)"/>
<path d="" fill="#F5F1ED" transform="translate(0,0)"/>
<path d="" fill="#F2F0EB" transform="translate(0,0)"/>
<path d="" fill="#F3EFE8" transform="translate(0,0)"/>
<path d="" fill="#EEEFE5" transform="translate(0,0)"/>
<path d="" fill="#F2F0EB" transform="translate(0,0)"/>
<path d="" fill="#EBEBE5" transform="translate(0,0)"/>
<path d="" fill="#F2EEEA" transform="translate(0,0)"/>
<path d="" fill="#EDEBE4" transform="translate(0,0)"/>
<path d="" fill="#F1EFEB" transform="translate(0,0)"/>
<path d="" fill="#F0EDEA" transform="translate(0,0)"/>
<path d="" fill="#F1F0E9" transform="translate(0,0)"/>
<path d="" fill="#F2EEEA" transform="translate(0,0)"/>
<path d="" fill="#F0EDE7" transform="translate(0,0)"/>
<path d="" fill="#EBE9E5" transform="translate(0,0)"/>
<path d="" fill="#F0EDE8" transform="translate(0,0)"/>
<path d="" fill="#F4EEE8" transform="translate(0,0)"/>
<path d="" fill="#EEECE6" transform="translate(0,0)"/>
<path d="" fill="#F4F0EB" transform="translate(0,0)"/>
<path d="" fill="#F1EDE3" transform="translate(0,0)"/>
<path d="" fill="#ECE9E2" transform="translate(0,0)"/>
<path d="" fill="#F4EFE7" transform="translate(0,0)"/>
<path d="" fill="#F0EFEA" transform="translate(0,0)"/>
<path d="" fill="#F4F1E8" transform="translate(0,0)"/>
<path d="" fill="#F0ECE5" transform="translate(0,0)"/>
<path d="" fill="#EFEBE6" transform="translate(0,0)"/>
<path d="" fill="#F0EEEA" transform="translate(0,0)"/>
<path d="" fill="#EDEAE4" transform="translate(0,0)"/>
<path d="" fill="#F1F0EA" transform="translate(0,0)"/>
<path d="" fill="#EFEEE6" transform="translate(0,0)"/>
<path d="" fill="#F2EFE9" transform="translate(0,0)"/>
<path d="" fill="#F2EEE7" transform="translate(0,0)"/>
<path d="" fill="#EFEAE8" transform="translate(0,0)"/>
<path d="" fill="#EDECE6" transform="translate(0,0)"/>
<path d="" fill="#F3EFEC" transform="translate(0,0)"/>
<path d="" fill="#F3F1EC" transform="translate(0,0)"/>
<path d="" fill="#EBEAE3" transform="translate(0,0)"/>
<path d="" fill="#EDEBE4" transform="translate(0,0)"/>
<path d="" fill="#F4EFE6" transform="translate(0,0)"/>
<path d="" fill="#F4F1EB" transform="translate(0,0)"/>
<path d="" fill="#F4F1EB" transform="translate(0,0)"/>
<path d="" fill="#ECEBE6" transform="translate(0,0)"/>
<path d="" fill="#F5F1EA" transform="translate(0,0)"/>
<path d="" fill="#F4EFEA" transform="translate(0,0)"/>
<path d="" fill="#F1EFE8" transform="translate(0,0)"/>
<path d="" fill="#EFEDE7" transform="translate(0,0)"/>
<path d="" fill="#F2EDE5" transform="translate(0,0)"/>
<path d="" fill="#F1ECE4" transform="translate(0,0)"/>
<path d="" fill="#F2F1EA" transform="translate(0,0)"/>
<path d="" fill="#EFEAE3" transform="translate(0,0)"/>
<path d="" fill="#F0EFE7" transform="translate(0,0)"/>
<path d="" fill="#F1EFE8" transform="translate(0,0)"/>
<path d="" fill="#F0EDE5" transform="translate(0,0)"/>
<path d="" fill="#ECEBE1" transform="translate(0,0)"/>
<path d="" fill="#F2F1EA" transform="translate(0,0)"/>
<path d="" fill="#F2EEE7" transform="translate(0,0)"/>
<path d="" fill="#EFEDE5" transform="translate(0,0)"/>
<path d="" fill="#F2F2E8" transform="translate(0,0)"/>
<path d="" fill="#F0ECE6" transform="translate(0,0)"/>
<path d="" fill="#EBE8E1" transform="translate(0,0)"/>
<path d="" fill="#EEEDE6" transform="translate(0,0)"/>
<path d="" fill="#F1EDE6" transform="translate(0,0)"/>
<path d="" fill="#EFEDE5" transform="translate(0,0)"/>
<path d="" fill="#EBEAE2" transform="translate(0,0)"/>
<path d="" fill="#F3EDE8" transform="translate(0,0)"/>
<path d="" fill="#F3EFEA" transform="translate(0,0)"/>
<path d="" fill="#F3F1E8" transform="translate(0,0)"/>
<path d="" fill="#F1EFE9" transform="translate(0,0)"/>
<path d="" fill="#EFF0E8" transform="translate(0,0)"/>
<path d="" fill="#F3F3EB" transform="translate(0,0)"/>
<path d="" fill="#F2EEEA" transform="translate(0,0)"/>
<path d="" fill="#F0EFEA" transform="translate(0,0)"/>
<path d="" fill="#EFECE7" transform="translate(0,0)"/>
<path d="" fill="#F4F0EA" transform="translate(0,0)"/>
<path d="" fill="#F3F1EB" transform="translate(0,0)"/>
<path d="" fill="#EBE9E1" transform="translate(0,0)"/>
<path d="" fill="#EEECE6" transform="translate(0,0)"/>
<path d="" fill="#F3EFEA" transform="translate(0,0)"/>
<path d="" fill="#F5F0EA" transform="translate(0,0)"/>
<path d="" fill="#F2EFE9" transform="translate(0,0)"/>
<path d="" fill="#F1EFE6" transform="translate(0,0)"/>
<path d="" fill="#EFEDE6" transform="translate(0,0)"/>
<path d="" fill="#ECECE5" transform="translate(0,0)"/>
<path d="" fill="#F2EEEA" transform="translate(0,0)"/>
<path d="" fill="#EFECE8" transform="translate(0,0)"/>
<path d="" fill="#F2EEE9" transform="translate(0,0)"/>
<path d="" fill="#F2F0E9" transform="translate(0,0)"/>
<path d="" fill="#F4EFEA" transform="translate(0,0)"/>
<path d="" fill="#E9E7DE" transform="translate(0,0)"/>
<path d="" fill="#EFEAE2" transform="translate(0,0)"/>
<path d="" fill="#F3F0EC" transform="translate(0,0)"/>
<path d="" fill="#F2EDE6" transform="translate(0,0)"/>
<path d="" fill="#F4F0EC" transform="translate(0,0)"/>
<path d="" fill="#EAE8E1" transform="translate(0,0)"/>
<path d="" fill="#EBE9E5" transform="translate(0,0)"/>
<path d="" fill="#F2EFE9" transform="translate(0,0)"/>
<path d="" fill="#EEECE5" transform="translate(0,0)"/>
<path d="" fill="#F2F0E9" transform="translate(0,0)"/>
<path d="" fill="#F1F2ED" transform="translate(0,0)"/>
<path d="" fill="#F4F0E9" transform="translate(0,0)"/>
<path d="" fill="#F0EDE5" transform="translate(0,0)"/>
<path d="" fill="#F2F0E8" transform="translate(0,0)"/>
<path d="" fill="#F3EFE9" transform="translate(0,0)"/>
<path d="" fill="#F3F0E8" transform="translate(0,0)"/>
<path d="" fill="#F2EFEA" transform="translate(0,0)"/>
<path d="" fill="#F1EFE9" transform="translate(0,0)"/>
<path d="" fill="#F3EEE9" transform="translate(0,0)"/>
<path d="" fill="#F3EFEC" transform="translate(0,0)"/>
<path d="" fill="#EDE9E3" transform="translate(0,0)"/>
<path d="" fill="#F2EFE8" transform="translate(0,0)"/>
<path d="" fill="#F0F0E9" transform="translate(0,0)"/>
<path d="" fill="#F3F1EB" transform="translate(0,0)"/>
<path d="" fill="#F3F0EA" transform="translate(0,0)"/>
<path d="" fill="#F4F0E8" transform="translate(0,0)"/>
<path d="" fill="#F2EEEB" transform="translate(0,0)"/>
<path d="" fill="#F1EEE9" transform="translate(0,0)"/>
<path d="" fill="#F0EEEC" transform="translate(0,0)"/>
<path d="" fill="#F3F0E8" transform="translate(0,0)"/>
<path d="" fill="#F1EFE7" transform="translate(0,0)"/>
<path d="" fill="#F4F0E9" transform="translate(0,0)"/>
<path d="" fill="#F2EFE6" transform="translate(0,0)"/>
<path d="" fill="#F0F0E9" transform="translate(0,0)"/>
<path d="" fill="#EDECE4" transform="translate(0,0)"/>
<path d="" fill="#EFEBE6" transform="translate(0,0)"/>
<path d="" fill="#EFEBE4" transform="translate(0,0)"/>
<path d="" fill="#EDEBE5" transform="translate(0,0)"/>
<path d="" fill="#F4EFE9" transform="translate(0,0)"/>
<path d="" fill="#EEEEE8" transform="translate(0,0)"/>
<path d="" fill="#EBEAE0" transform="translate(0,0)"/>
<path d="" fill="#F2EDE7" transform="translate(0,0)"/>
<path d="" fill="#F1EDE8" transform="translate(0,0)"/>
<path d="" fill="#ECEAE5" transform="translate(0,0)"/>
<path d="" fill="#F1EDEA" transform="translate(0,0)"/>
<path d="" fill="#EEEFE9" transform="translate(0,0)"/>
<path d="" fill="#EFEFE4" transform="translate(0,0)"/>
<path d="" fill="#F1EEE6" transform="translate(0,0)"/>
<path d="" fill="#F0F0EB" transform="translate(0,0)"/>
<path d="" fill="#F0EEE7" transform="translate(0,0)"/>
<path d="" fill="#EDEBE4" transform="translate(0,0)"/>
<path d="" fill="#EBE7E2" transform="translate(0,0)"/>
<path d="" fill="#F4EEE9" transform="translate(0,0)"/>
<path d="" fill="#EEEDE5" transform="translate(0,0)"/>
<path d="" fill="#ECEAE3" transform="translate(0,0)"/>
<path d="" fill="#F0EEE7" transform="translate(0,0)"/>
<path d="" fill="#EBEAE5" transform="translate(0,0)"/>
<path d="" fill="#F1EFE9" transform="translate(0,0)"/>
<path d="" fill="#EBE8E2" transform="translate(0,0)"/>
<path d="" fill="#F1F0EB" transform="translate(0,0)"/>
<path d="" fill="#EFECE6" transform="translate(0,0)"/>
<path d="" fill="#EFECE4" transform="translate(0,0)"/>
<path d="" fill="#EFECE6" transform="translate(0,0)"/>
<path d="" fill="#F2EFE8" transform="translate(0,0)"/>
<path d="" fill="#F2F0EB" transform="translate(0,0)"/>
<path d="" fill="#F4F1EA" transform="translate(0,0)"/>
<path d="" fill="#F1EFEA" transform="translate(0,0)"/>
<path d="" fill="#F3F0EA" transform="translate(0,0)"/>
<path d="" fill="#F2EFE9" transform="translate(0,0)"/>
<path d="" fill="#F6F3ED" transform="translate(0,0)"/>
<path d="" fill="#F6F2EA" transform="translate(0,0)"/>
<path d="" fill="#F2EFEA" transform="translate(0,0)"/>
<path d="" fill="#F3F0EB" transform="translate(0,0)"/>
<path d="" fill="#F5F2EB" transform="translate(0,0)"/>
<path d="" fill="#EFECE7" transform="translate(0,0)"/>
<path d="" fill="#F2EEE8" transform="translate(0,0)"/>
<path d="" fill="#F1EDE7" transform="translate(0,0)"/>
<path d="" fill="#EEEBE4" transform="translate(0,0)"/>
<path d="" fill="#EFEBE5" transform="translate(0,0)"/>
<path d="" fill="#EEECE6" transform="translate(0,0)"/>
<path d="" fill="#F1EEE8" transform="translate(0,0)"/>
<path d="" fill="#F1EEE9" transform="translate(0,0)"/>
<path d="" fill="#ECEBE2" transform="translate(0,0)"/>
<path d="" fill="#F2ECE6" transform="translate(0,0)"/>
<path d="" fill="#EAE9E4" transform="translate(0,0)"/>
<path d="" fill="#EAE6E2" transform="translate(0,0)"/>
<path d="" fill="#F2EFEB" transform="translate(0,0)"/>
<path d="" fill="#F1F0E8" transform="translate(0,0)"/>
<path d="" fill="#F0EEE8" transform="translate(0,0)"/>
<path d="" fill="#F3F1EA" transform="translate(0,0)"/>
<path d="" fill="#EFEBE5" transform="translate(0,0)"/>
<path d="" fill="#F0EAE5" transform="translate(0,0)"/>
<path d="" fill="#F3EFE9" transform="translate(0,0)"/>
<path d="" fill="#EFEDE6" transform="translate(0,0)"/>
<path d="" fill="#F6F2EB" transform="translate(0,0)"/>
</svg>
